<svg xmlns="http://www.w3.org/2000/svg" viewBox="0 0 415.01 124.33"><defs><style>.cls-1{isolation:isolate;}.cls-2{fill:#e60519;}.cls-3{opacity:0.2;mix-blend-mode:multiply;}.cls-4{fill:#595959;}.cls-5{fill:#fff;}</style></defs><title>Asset 1</title><g class="cls-1"><g id="Layer_2" data-name="Layer 2"><g id="Layer_1-2" data-name="Layer 1"><path class="cls-2" d="M32.55,85.58c.7-.77.71-.74-.56-1.23a37.44,37.44,0,0,1-8.47.06c-.17,0-.3-.21-.45-.33.77-.49,2.45,0,2.91-.84,0-.43-1.18-.62-.71-1.14,1.1-.46,4.41-.27,2.6-.41-5.42-.39-4.14-.19-4.95-.84a47.26,47.26,0,0,1,8-.37c-.45-.72-1.83-.06-8.35-1.51-.09-.44.52-.48.89-.65.16-.07.17-.25.21-.38.1-.41-2.18-.21-3.59-.64l1.9-.82c-.2-.68-1.46-.55-2.06-.9.17-.57-.26-.16,1.39-.87a.31.31,0,0,0-.1-.58,7.15,7.15,0,0,0-1.39-.39c-8-.8-6.35.24-12.91-.32-.27,0-.48-.26-.78-.44,8.06-.73,13.14.47,15.18-.2.53-.17-1.4-.66-4.57-.6a74.07,74.07,0,0,1-10.21-.07c-.53,0-1-.17-1.11-.6,1.68-.33,3.5-.05,5.27-.3-1.1-.7-3-.27-4-.74-.24-.11-.2-.31-.06-.34,3.44-.68,9,.19,13.65-.6-.14-.12-.23-.27-.36-.28a9.22,9.22,0,0,1-3.85-1l5-.54c-.42-.7-.33-.77-4.4-.24a4,4,0,0,0-1.41.18l.93.65c-1.84,0-1.5-.17-1.67.64-.37.13.56.12-5.8.14A1.81,1.81,0,0,1,8.3,69c-.17-.43.51-.62.82-.91.68-.25,1.24.15,1.74.11l1.87-.55c-.7-.48-.66-.18-.13-1.45L16,65.89c0-.16,0-.31-.11-.38-.8-.48-6.09-.22-6.89-.58a6.21,6.21,0,0,1,2.63-.26c3.5-.13,2.4.28,4.16-1.07.48-2.14.73-1.64-.86-2.35l.59-.75a17.21,17.21,0,0,0-5.29-.5c-3.14.19-6.28,0-9.41.08-.38,0-.34-.32-.08-.56,3.25-.35,9.21.12,12.64-.25-.27-.2-.46-.47-.71-.49-4.62-.41-11.56.15-11.44-.5.09-.44,1.36-.38,5.58-.49,5.08-.13,6.42,0,7.89-.82a2.81,2.81,0,0,0-1.65-.8c-.4-.39,3.5-.15,3.34-.87s-4.51.24-5.61-.9c1.31-1.39,2.6-.9,29-.84,9.53,0,6.21.07,9.4-.08.46-.8-.72-1.1-2.21-1.11-1.83,0-3.67-.17-5.51,0a6.41,6.41,0,0,1-1.27-.21c1.65-.3,1.1,0,11.71-.19a16.6,16.6,0,0,0,4-.14,6,6,0,0,1,1.47-.94c8.7-1.42,157.22.42,158.38.15a24.14,24.14,0,0,1,6.24-.08c4.71.16,9.46-.07,14.16.32,2.73.23,1.21-.68,9,.12,1.27.13,2.65-.09,3.84.34a13.71,13.71,0,0,0,2.72-.12c1.83-.48,3.22.8,5.63-.22a8.09,8.09,0,0,1,3.76-.08c-3.4.82-.65.15,7.19,1.18,5,.67,6.31-.11,9.39.07,4.85.27,29.71,0,35-.11,3.57-.07,2.35-.72,7.72-.69.38,0,.77,0,1.74-.1-8.68-.38-16.8-.13-25.55-.31,3.24-.45,4.58,0,8.68-.29,1.61-.11.07.17,8.66,0,5.83-.13,3-.49,7.77-.41,4.16.07,4.89.53,9,.41,2-.06,3.89.1,6.74.16-4.69.42-8.52.08-12.31.36-.22.55,1.59,0,3.62.62,1.1.35,19.55.17,20,0a19.8,19.8,0,0,1,3.88-.42c-1-.57-2.37,0-3.37-.54A27.64,27.64,0,0,1,354,51a8.31,8.31,0,0,0,2.33-.13,8.1,8.1,0,0,1,3.12.1c1.47-.24,3.22-.65,4.53-.27,1.62.47,2.93.2,4.94,0,1.17.36,1.81.83,5.72-.09a41.23,41.23,0,0,0,4.13.68c4.09.1,3.34.43,7.41.51,9.57.2,7.43.09,8.95.32-4.55.28-8.82.19-13.08.3.84,1.95,2.58.52,18.88.95,2.21.06,5.67-.53,7.94.59-.15.67,3.46.69-32.63.69l-.91.6c-1.44-.7-.62-.56-3.8-.56-.4.36.1.59.17.86s-1.18.22-1.18.72a58.8,58.8,0,0,0,8,0c6.22-.42,5.64,1.28,10.6,1.19A2,2,0,0,0,390.6,57l-.25-.9A4.59,4.59,0,0,1,394,56l.75,1.46c5.53.86,17.91-.68,17,1.31-2.19.77-10.81-.1-12.08.53,2.48.45,3-.13,10.14.19a5.52,5.52,0,0,1,1.38.37c.12,0,.13.32-.07.34-.52,0-1,.11-1.55.12-17.68.15-12-.17-15.25,1.16,1.63.5,6.45.63,9.2.45,2.36-.16,4.71,0,7.06,0a4.26,4.26,0,0,1,1,.2c.59.72.11.24-25.4.53,0,0-5.43.33-12.51.42a42.51,42.51,0,0,0-7.05.19c-6.08-.32-5.73-.59-7.4-.43-1.39.14-2.84-.11-4.29.06a48.91,48.91,0,0,1-7.43-.08c-3.3,0-2.64.44-8.62,0a2.4,2.4,0,0,0-2,.52c1.34,1.14-.7.43,44.5.62,4.6,0,3.81.93,9.25.87,6.15-.07,15.27-.12,22.45.08.32.63-1.59.14-2.4.58,3.31.27,2.68.08,3.11.81-1.16.69-11.58.3-19.2.33-2.36,0-4.7.28-7.08.19a94.27,94.27,0,0,1-11.38.2c-.22,0-37-.32-36.74.24s.22.8-.66,1.1c-1.4.46,1,1.56,2.31.87,1.09-.6,4-.29,7.58-.36l1.11.54c13.93-1.38,30.48,0,34.47-1.16,3,.72,5,.29,4.95.82,0,1.44-23.82,0-26,.84,1.42.5,2.65.1,7.37.35a67.71,67.71,0,0,1-7.6.9c-2.22,1.07-.18.68-30.28.72a3.11,3.11,0,0,0-2.38-.18,6.53,6.53,0,0,0,2.45.13,3.52,3.52,0,0,1-1.75.45c-5.86.09-6,.18-7.66-.45a1.68,1.68,0,0,0-1.82.38c-.06.11,1,.43,1.27.46a67.6,67.6,0,0,1,8.21.33c.91.13,1.53.12,8.19.15,2.48,1.09,1.62,1.08,45.49.89.91,0,1.82-.07,2.93-.12,3.7,1.1,14.15.28,14.17.28,4.22.16,11.78-.19,12.89.33,2.89,1.38-18.2.68-23.18,1.42a6.48,6.48,0,0,1-4.49,1c-3.35-.37-4.74,0-15.72-.47-6.31-.25-10.46.16-13-.31-2.33-.43-5.4-.1-9.23-.49a26.69,26.69,0,0,1,4.64-.26c5.17-.18,4.18.12,4.6-.5-3.87-.31-1.29-.23-16.78-.23L340.41,76c.26.26,1.17.36.83.86a7.2,7.2,0,0,0,3.65.47c3.61.45,7.34.14,11,.55,4.58.51,2.74-1.27,7.89-.62,2,1,1,.73,3.72.83s2.06.32,2.95-.41c4.17-.43,17.11-.14,20-.08l2.4.87c-.26-.15-.42.78-2.62.86-7.49.29-19.26-.3-23,.21a6.35,6.35,0,0,0,1.17.24s9.18.16,9.45.11c3.2-.52,8.22.41,11-.08,2.22.16,3-.16,12.29.58-2.68.32-5.53,0-8.86.51-3,.48-14.56-.11-24,.22-2.08.07-4.19-.09-6.29-.11-5.65,0-5.88.13-6.69.07-4.35-.33-7.92.23-13.77,0-14.16-.55-13.12-.32-14.36-.68,2-.44,4.07-.13,6-.45s3.94,0,5.69-.64c-.56-.59.61.07-10.77,0a28.51,28.51,0,0,1-3.93,0c-1.82-.57-3.84-.38-5.77-.55s-4.17-.27-6.27-.27c-9.45,0-11.76-.12-12.21-.07a51.17,51.17,0,0,1-6.67-.06c-9.79-.16-7.22-.38-9.12.19-.76.12-1.8-.1-2.83-.06s-1.82.14-2.74.2c-4.79.3-4.91,0-5.61.44.92.24-1,.16,11.36.52,13.95.41,13.2-.19,13.41.88-4.06.23-8.15,0-12.2.15-4.48.2-10.5-.24-12.58.18a15.4,15.4,0,0,1-4.55.5c-.4,0-1.09.08-1,.55a31.53,31.53,0,0,1,8.49.62,11.8,11.8,0,0,0,4.26.17L277.4,82c-.75-.22-.57-.87.48-.9a126.55,126.55,0,0,1,13,.29c2,.18,3.17,0,9.82.44,8.76.54,6.35-.25,18-.33,17-.13,24.15.44,61.13.59l.37.83c8.1.52-2.44.13-4.73.56-2,.38-2.83.45-21.24.34-8.28,0-10.24-.47-12.45.32-.52.19-1.06.19-7,.11-2.9,0,1-.75-16.35-.75l-1.65.6c-1.75.3-3.64-.12-5.43.4,2.05.55,4.2.18,6.25.38l.57,1.07c5.4.07,10.61-.4,14.92.31,2.25.37,2.16-.07,4.49.68a.17.17,0,0,1,0,.34,44.83,44.83,0,0,1-5.47.11c-1.14,0-2.28-.18-3.75-.31,2.43,1.1,1.08-.07,9.51,1.27.47.07.9.25.9.67l-2.24.34c3.65,1.37,7.83.14,10.67,1.29a29,29,0,0,1-5.74,0,4.34,4.34,0,0,0-3.65.86c-7-.13-6.92-.78-11.28-.1-.08,0-.13.08-.19.13,2.2.88,7.19.14,13.13.9,2.81.36,6.12,0,6.95.5.45.41-.09.86.37,1.23-2,.42-2.44.45-6.73.42-.08.41,0,.52.54.63a6.69,6.69,0,0,0,2.32.06c1.14-.16,2.5-.22,2,.37-1.23.37-6.15-.47-5,.8.74.81,3.63.66,9.26,1.29-2.75.35-5.53.14-8.27.3-.24.4.85.54.56.93.9.29,1.76.61,2.7.85.77.2,1.85,0,2.37.64-1,.43-2.24.07-3.25.34l.62.49a4.12,4.12,0,0,0-1.92.79l.76.67c-1.67.85-4.63.26-10.32.78a8.61,8.61,0,0,0-1.14,0c-.39.08-.43.3,0,.54,4.5,0,9.51-.27,11.07.27-.48,1.29-3.9-.43-7.81.91.65.1,3.07.09,5.75.39a19.61,19.61,0,0,0,4.57.4c-.2.19-.27.35-.44.39-3.29.84-3.81-.46-7.47-.46-.5.21-.12.4-.09.58-.66.64-2,.55-3,.91.12.12.21.31.38.34,4.58.75,3.44,1.36,4.93,1,.52-.14.3-.43.34-.84.8-.26,3.21-1.32,4.74,0-.49.48-1.85.21-2.24.83.15.24.31.51.48.77-.22.58-1.28.24-1.72.83,1.42,1,1.65.79-2.44,1.72a10.47,10.47,0,0,1-2-.22c-2.05-.74-3.62.67-7.9-.27a4.45,4.45,0,0,0-1.87-1.06,17.24,17.24,0,0,0-8.67.42c-.28.09-.39.34-.59.54l1.8.47c.57,1,.57,1-.84,1.79.62.53,8.54,1.61,12.5,1.16a24.8,24.8,0,0,1,6.33,0c-.14.25-.17.48-.38.63-1.78,1.24-.05,1.6-2.89,1.83a3.76,3.76,0,0,1-.81-.38,3.5,3.5,0,0,0-1.9-.72c-5.9-.55-8.43-2-13.66-.52.39.6,1.5.1,1.94.51.14.63-.26,1.11-1,1.21a39.94,39.94,0,0,1-5.1,0c-3.38-.18-1.42,0-6.65,0a9.22,9.22,0,0,0-2.69.19c-.18.06-.25.23-.36.35,13.41.82,21.63-.6,23.1.07a1.12,1.12,0,0,1-.46.21c-5.27,0-4.23-.25-5.72.76-1.74.42-3.61,0-5.49.19-2.22.7-.65.5-6.76.64-.51,0-.08.44,0,.44,5.41.18,3.19,0,5.32.31.56.86-.91.92-2.81.94-2.44,0-13.91.14-16-.56-.15,0-.16-.23-.26-.37a58.44,58.44,0,0,1,6-.24c-.15-.13-.19-.22-.27-.23-5.89-.63-12.4-.75-12.44-.74-3.89.29-29.39-.72-31-.87a3.35,3.35,0,0,0,0-1.15c-.15-.42.89-.56.6-1-4.36-1.05-3.31-.64-30.06-.64a17.31,17.31,0,0,0-5,.38c-2.12.75-2.4.14-11.25.74-5.53.38-8.56-.18-16.11.45-6.84.57-6,.71-13.65,1a32.57,32.57,0,0,0-4.31.2,4.15,4.15,0,0,1-1.17,0c-4-.41-9.49.54-15.28.45-1.43,0,9.4,0-54.42.22-4.8,0-1.81.31-10.23.34-12,0-17.08,2.25-21.28,1.77l.07,0c-1-.43-1.41-.26-4.37.17-2.2,1.12-1.57.08-4.45.53-7.91,1.25-11.16,2.79-11.83,1.19,1.73-.85-1,.14,11.68-2.34,5.93-1.15,28-1.86,28-1.87,5.74-.78,15.21,0,22-.69a192.53,192.53,0,0,0,19.62.18c.07-.73.51-.59-4.94-1,2.68-.15,35.69-.18,42.89-.9.14,0,.22-.22.32-.34-1-.42-2.29-.17-3.2-.34-.35-.18-.3-.34,0-.37,4-.34,2.81,0,3.62-.49a10,10,0,0,0,3.12-.28c-1.15.06-2.21-.18-3,.33-2.18-.51-3.42,0-5.42-.24s-2.76.17-6.67.08a3.26,3.26,0,0,1-1.75-.63c-24.65-.6-41.23.43-39-.51a4,4,0,0,1,2.22-.3c3.65.54,7.39.36,14.4.18l.65-.62a7.65,7.65,0,0,1,.79-.09c18.33-.07,17-.6,12.15-.54a37.41,37.41,0,0,1-8.27-.61l2.59-.69c1.71.17,3.54,0,5.36.29a15.73,15.73,0,0,0,3.15.05c3.45-.22,10.71-.2,11.32-.43,1.44-.52,1.37-.28,13.27-.56a3.05,3.05,0,0,0,1.78-.39c-.15-.08-.31-.24-.44-.23-4,.2-8.69-.21-10.19.12-2,.43-3,.24-12.15,0-1.83,0-3,.37-4.45-.39a6.18,6.18,0,0,0-3-.23c-.6.16.92.73,0,.78-5.26.26-5.68.6-11.22.39a4.91,4.91,0,0,0-5.91.41,4.75,4.75,0,0,1-.74.12c-2.63,0-5.23.17-7.85.28-.74,0-1.54-.29-2.27-.24-1.85.12-3.67-.07-5.51,0-3,0-3.86-.41-5.47-.23-2.35.26-3.87.15-5.44.43-.07.29-.14.58-.23.93-2.69.71-5.64.47-8.55.72-6-1.79-1.4-.9-7.24-2.48.11-.1.14-.19.21-.2,5.78-1,6.45-.35,8.11-.6,4.15-.61,8,.41,14.52.14,4-.17,7.61-1.31,12.82-.74a21.85,21.85,0,0,0,6.5-.35,77.37,77.37,0,0,0,12.68-.31,9.71,9.71,0,0,0,1.86-.55c2.55,0,4.44.85,5.52,0l-1.18-.69,2.73-.34c0-.69-1.23-.51-1.66-.87.82-.28-.16-.07,2.45-.41.41,0-.07-.45-.23-.47a36.29,36.29,0,0,0-9,.22l-.22.76a5.53,5.53,0,0,1-2.52.82c-3.52-.22-7.06-.38-10.5-.89-.15,0-.24-.23-.3-.36s1.45-.5,1.75-.56c-7.82-.86-12.15,1.42-21.84,1.55a26,26,0,0,0-4.94.43,32.67,32.67,0,0,0-5.2-.2,2.42,2.42,0,0,1-.76,0c-3.27-.62-6.5-.13-9.74.07a7.66,7.66,0,0,0-1.76.41c.11.41.83.27,1.25.44.25.53.31,1.16,1.72,1.21.13,0,.25.19.37.29a8.93,8.93,0,0,1-2.31.09c-2.39.17-2.13.39-4.57-.17-.49-.11-.83-.34-.87-.68s.61-.46.77-.69-.35-.48-.53-.73c-.36-.53,2.53-.34,3.64-1-.12-.27.45-.14-5.29-.85l-1.29-.49c-6.81.91-8.26,2.37-10.89.56a3.08,3.08,0,0,0-3.06-.33l-1.1-.89c-1-.13-2.91-.56-2.91.24a9.46,9.46,0,0,0,4.09.6c-.51.75,0,.51-2.54,1,.47.43,1.67.34,1.65.94-1.84.39-1.91,0-3.4-.1a12.13,12.13,0,0,1-3.14-.74c.94-1.09.3-.84-3.19-.84-1-.64.92-.62,3.61-.83-.1-.09-.18-.27-.29-.28-1.25-.07-1.9-.44-1.93-1.15,0,0-.15-.11-.23-.17a21.23,21.23,0,0,0-8-.31c.21.63,2.08.08,2.2,1.09a30.42,30.42,0,0,0-4,.68,4.59,4.59,0,0,1-1.26-.11l-1.29.74c-2.31.28-2,.1-2.23.81-.61,2-4,.77-4.2-.44-.12-.6-.94-.85-1.38-1.2-.49-2.9-.33-1.93-.69-4.13-1.72-1-5.6-.29-7.79-1.23-.45-1.47,8.08.47,7.71-1.07-8-.35-8.19-.11-8.16-.86a3,3,0,0,1,2-.55c3.39.36,4.67-.51,15.29.13,1,0,6.29.32,6.92,0-2.77-2.19-1.28-2.13,5.61-2.68-11.07-.7-30.92.1-34.12-.38a3.5,3.5,0,0,1,.79-.2c2.5,0,4.89-.5,7.43-.47,8.53.1,17.46-.34,21.22-.51a8.3,8.3,0,0,0,1.3-.29c-15.77-.52-16.87.21-26-.37-3.48-.23-9.81,0-14.93-.52-2.11.1-4.19-.14-6.29-.14a8.4,8.4,0,0,1-2.38-.18c1.28-.26.73-.19,21.59-.41,8.52-.09,2.12-.28,11.44-.33-.16-.31-.54-.27-.79-.27-8,0-11.2-.69-15.73-.52a5.86,5.86,0,0,1-2.37-.27c.25-.16.46-.41.75-.44,2.1-.21,4.09-.1,4.92-.5.35-.83.18-1.2,2.73-1,4,.35,2.08-.9,3.55-1.4l.82.72c4.91.76,3.56.64,5,.42-1.16-.88-.85-.4-1.46-1.82,1.6-.57,3-.11,5.55.4a11.33,11.33,0,0,0,6.83,1.36c.31,0,.57-.33.48-.52-.17-.34-1-.51-.7-1a10.44,10.44,0,0,1,3.21-.54s.06-.1.09-.16l-1.21-.58c1.75-.83,3.85-.46,5.79-.7-4.8-.32-10.33-.56-11-1.13l.17,0a3.57,3.57,0,0,1-2.38.59c-4.6,0-2,.25-6.58.06-1.24,0-.24-.12-5.29.42.78.67,2.11.71,4,1-2.16.21-.5,1-1.52,1.33Zm222.7-16h.24c.13.44.54.37.91.59C255.78,70,255.73,69.71,255.25,69.55Zm40.43,41.65c.71-.11,1.43-.15.81-.31-.35-.09-.48.13-.73.36-1.22,0-.91.07-1.43-.46-1.45.09-3-.1-4.67.11.67.23-.39.15,5.16.27C295.08,111.41,295.38,111.31,295.68,111.2ZM247.44,83.29a4.47,4.47,0,0,0,.93-.17c-.36-.07-.14-.14-.84.22C247.19,83.48,247.22,83.49,247.44,83.29ZM234.83,69.64c-6,0-3.4,0-4.35-.14a20.21,20.21,0,0,0-5.76,0c-.14,0-.21.23-.33.37a6.87,6.87,0,0,0,2.25.27,31.92,31.92,0,0,0,4.2-.53,6.22,6.22,0,0,0,3.74.17c.08,0,.12-.12.18-.18.33,0,.4-.07.2-.11A.92.92,0,0,0,234.83,69.64Zm81.33,7c.41.29.41.29.76,0a4.65,4.65,0,0,0,1.77.37c9.62-.15,6.55,0,4.18-.38s-1.19-.53-5.26-.18a2.28,2.28,0,0,0-.61.24h-.93c-1.44-.48-7.24-.66-5.84-.12a16.06,16.06,0,0,0,2.15.07C315.24,76.77,313.9,77.18,316.16,76.66ZM334.37,70c-1.26-.3-.87-.24-1.4-.16l1.48.12c.13.11.21.32.37.34,6.36.91,4.72,1,7.69.34C339.79,70.12,342.1,70.27,334.37,70ZM48.4,98.36a6,6,0,0,0,3.21.18c-1.41-.43-.69-.38-3.28-.13,0-.42-.51-.67-1.15-.77-2.5-.41-6.46-.27-6.32.07C41.11,98.34,41,98.26,48.4,98.36Zm210.86-28.7-.06-.09c.47.21.66.29.76.26a27.24,27.24,0,0,1,4.24-.15c9.79-.64,13.36,1.15,14.47-.07,0,0-.17-.15-.26-.15-.64,0-1.3.05-1.93,0-4.45-.36-8.91-.07-13.36-.14A13,13,0,0,0,259.26,69.66ZM54,89.1c-.42-.2-.54-.23,3.18.8a55.38,55.38,0,0,0,6.69,0c2.16-.24,4.47.06,6.5-.6a.62.62,0,0,0-.55-.88c-5.86-.35-2,.2-3,1-1.59.22-4,0-4.22-.89.37,0,.73-.1,1.09-.1.75,0,.24-.24-.08-.15s-.62.2-.93.3C60,88.58,62.43,88.43,54,89.1ZM33.41,56.34c-.32-.21.44.22.92.24a25,25,0,0,0,6.23-.3c2.73.43,4.87-.13,7.2-.54-3-.93-9.34-.32-20.57-.18.5.35.5.35,3,.54,0,.19.09.37.13.53A6.3,6.3,0,0,0,33.41,56.34ZM219.82,82a.94.94,0,0,0-.94-.16l1,.11c-.07.55-1.34.36-1.59.78,7.26,0,6.39.92,10.36.84s6.34.44,7.7-.15c1-.41,2.19-.43,3.32-.85-7.57-.28-10.55-.89-15.72-.16A9,9,0,0,1,219.82,82Zm85.76-26.23c.59.23.87.6,3.68.48s2.06.59,8.52.5c4.46-.06,8.92.18,13.37-.13a13.71,13.71,0,0,1,1.57,0c6.71.36,31-.06,31.83,0,.46,0,1.53-.21,1.49-.51s-1.42-.24-2.43-.38c-2.86-.39-.86-.73-4.11.06-6.69-.56-6.1.26-8-.15-2.77-.6-4.32.07-7.39-.14a25.27,25.27,0,0,0-6.95.11,3.55,3.55,0,0,1-.75-.08,16.16,16.16,0,0,0-3.06.18c-8.17-.15-5.92,0-7.65-.38-1.86.47-2.9.47-7.81.42-6.69-.06-7.53.64-10.5-.1A2.58,2.58,0,0,0,305.58,55.78Zm1.05,15c-2.81-.42-4.69-.89-6.09-.2-2.19,1.07-3.19.72-3.08,1.15s9.32.81,11.07.59c2.19-.27,1.47.6,10.11.19.5,0,.38-.45.12-.47-4.48-.32-4.12-.09-5.47-1.46A33.31,33.31,0,0,0,306.63,70.78Zm-61-16.4c7.12.44,13.68-.34,17.71.47a58.35,58.35,0,0,0,6.27-.06c1.66-.11,3.38.07,5.08.11.47,0,2.42-.35,3.47-.3,2.9.15,5.76-.15,8.64-.13.25,0,.67,0,.74-.3C284.7,54,247.1,54.08,245.63,54.38ZM162.37,104a2.9,2.9,0,0,0-.69-.17c-1.84-.08-3.7-.26-5.5-.16-3.4.18-6.85,0-10.21.43-1.5.2-3.31-.29-5-.14-6.6.6-11.71-.8-11.86.55C165,104.47,162,104.64,162.37,104Zm77.71,3.36c.67.31.77.63,3,.56,1.57,0,3.15-.27,4.69-.19,6,.34,2.43.35,17.27.25a2,2,0,0,0,1.22-.15,38.41,38.41,0,0,0-5.47-.39c-1.72.16-3.38-.19-5.09-.11-1.54.08-7,.15-8.24,0A50.27,50.27,0,0,0,240.08,107.32ZM288.9,104c.19-.4.39.06-8.19-.35-6.51-.31-4.93.3-9-.09-1.41-.13-2.87-.11-4.31-.16,0,.19-.23.09,1.46.47-.06.66-1.16.73-1.78,1.05.13.12.21.31.38.34a6.21,6.21,0,0,0,3,0C271.1,104.23,268.91,104.55,288.9,104Zm-38.84-20.5a27.62,27.62,0,0,0,8.85.87c1.15-.09,3,.25,3.26-.63s-9.22-.77-11-.7A4.16,4.16,0,0,0,250.06,83.45ZM190.62,52.58c6,.25,44.6,0,18.42-.13C209,52.45,193.54,52.3,190.62,52.58ZM66.33,67.69c-1.21-.31-.19-.41-3.7.22-1.17-.56-2.68-.26-4-.47s-2.82-.2-4.29-.29c-1.91.67-1.64.44-1.44,1,2,.28,3.29,0,5,.26,1.55.24,3.08-.18,4.64-.13A10.47,10.47,0,0,0,66,68.08C66.15,68,66.19,67.85,66.33,67.69Zm170.14,43.68c.73.23-.88.17,9.58.53,4.26.15,5.27.2,6.35-.47-1.39-.77-11.59-.27-13.68-.28A5.65,5.65,0,0,0,236.47,111.37Zm73.29-2.13c0-.41-.12-.66-6.07-1-4.27-.22-3.35.36-6.07,0a.76.76,0,0,0-.52.25c-.05.09.14.32.26.32A100.14,100.14,0,0,0,309.76,109.24Zm18.72-34a1,1,0,0,0-.35.09c-1.14.86-1.13.86-1.12,1.6a13,13,0,0,0,1.87.2c3.11-.07,6.24.18,10.11-.22-3.86-.33-7-.29-10.34-.28,2.41-.79,2.41-.79,4.08-.81a3.48,3.48,0,0,0,1.48-.11C334.88,75.35,333.45,75.43,328.48,75.22Zm-221,29.51c-.2-.12-.34-.28-.55-.31a15.64,15.64,0,0,0-2.27-.28C80,104,101.32,105.15,107.52,104.73Zm64.16,7.2c-5.49.45-8,0-11.31.24,1,.53,1,.54,1.32.55,1.69,0,3.39.11,5.06,0,5.15-.33,5.66.08,7.47-.81-.31-.54-1.07-.54-1.87-.48ZM273,70.7c-2-.11-10.38-.42-12.43,0-.17,0-.45.44-.18.52a4.71,4.71,0,0,0,1.05.24c6.07.24,3.89-.93,8.24-.12C271.72,70.9,270.89,71.07,273,70.7ZM44.81,102.05A25.4,25.4,0,0,0,40,102c-.07,0-.14.08-.29.18,1.58.59,2.59,1.54,4.38,2.07.32-.12.68-.31,1.1-.43C47,103.29,47.47,104,44.81,102.05ZM361.33,79.58a2.56,2.56,0,0,0-.63-.2H343.84a7.07,7.07,0,0,0-1.12.23c3.7.37,8.85-.09,15.2.22.91,0,1.83,0,2.75,0A2.28,2.28,0,0,0,361.33,79.58Zm-195,24.65c1.86.42,8.75.21,10.88.16.87,0,.8-.38.85-.51C176.6,103.83,179.12,103.75,166.35,104.23ZM134.8,87.51c3.55.25,12.93.41,15.64,0-1.38-.08-2.42-.21-3.46-.19C143.18,87.37,139.36,87.28,134.8,87.51Zm98.4,18.22c13.43.39,7.82-1.13,2.89-.52A7.23,7.23,0,0,0,233.2,105.73ZM265.08,82c-.14-.19-.16-.37-.31-.41a8,8,0,0,0-3-.18c-4.27.41-2.77.24-6.53,0-.23,0-1,.1-1,.23s.1.29.37.31a13.45,13.45,0,0,0,1.55,0C260,81.74,259.7,82,265.08,82ZM295.91,71.2c-1.07-.22.07-.35-5.19.17a4.09,4.09,0,0,0-.69.17,1.56,1.56,0,0,0,.47.27A16.75,16.75,0,0,0,295,72,.82.82,0,0,0,295.91,71.2ZM24.77,63.09c.28.54,1.21.46,1.88.63a31.8,31.8,0,0,1,3.52,0c1.2-.07,2.24,0,2.18-.19s-.19-.51-1-.52C24.38,62.91,25.55,63,24.77,63.09ZM299,107.44c-1.16-.44-7.13-.14-8.85-.08-.12,0-.62.36-.18.47,1.36.36,1.89,0,3,.06a21.52,21.52,0,0,0,2.64-.11C298.72,107.65,297.44,107.84,299,107.44ZM13.35,71.26c7.74.74,8-1.13.12-.5C13.43,71,13.4,71.08,13.35,71.26ZM331,63.62c-2.7-.44-5.44,0-8.14-.18a33.73,33.73,0,0,0-3.48,0,1.55,1.55,0,0,0-.42.14,5.19,5.19,0,0,0,1,.22C331.3,63.86,330.5,64,331,63.62ZM59.31,99.42c2.94,1.28,9,.72,7.25.33A22.43,22.43,0,0,0,59.31,99.42ZM324.61,104a13.48,13.48,0,0,0-6.95-.49c.21.17.32.35.5.38A49.29,49.29,0,0,0,324.61,104ZM46,67.66c.19-.18.15-.36-.13-.39a37.23,37.23,0,0,0-6.79.16c-.37.15-.17.34-.13.35,2,.57-.58-.1,6,0C45.26,67.77,45.63,67.69,46,67.66Zm113.91,37.51c8.31,1.63,7.47.36,7,.32C161.84,105.11,162.22,105,159.87,105.17ZM236.55,69.6c.3.22.37.32.46.32a36.73,36.73,0,0,0,5.45,0c.17,0,.29-.2.43-.3a1.94,1.94,0,0,0-.6-.24A34.33,34.33,0,0,0,236.55,69.6Zm-53.5,35.54c-6.41,0-5-.14-6.12.55A16.34,16.34,0,0,0,183.05,105.14Zm181.72-30a.94.94,0,0,0,.32.13c3.17-.07,7,.41,8.72-.16a9.85,9.85,0,0,0-1.18-.17C364,74.86,365.41,74.86,364.77,75.14ZM293.4,83.51a38.06,38.06,0,0,0,7.62,0A38,38,0,0,0,293.4,83.51Zm-13.8,27.06a15.28,15.28,0,0,1,2.28.2,14.35,14.35,0,0,0,5.51,0C282.58,111.13,282.3,109.84,279.6,110.57ZM237.79,71.23c5.22,0,4.15,0,4.82-.16A5.84,5.84,0,0,0,237.79,71.23Zm-68.86,34.46c1.39.29,1.83.28,5.08-.11a1.38,1.38,0,0,0-1.08-.5C171.84,105.06,169.46,105.22,168.93,105.69Zm104.51-21c.09,1.11,2.5.33,4.77.61.07,0,.27-.13.25-.14s-.25-.28-.42-.29A30.52,30.52,0,0,0,273.44,84.74ZM158.82,109.08c.17.1.23.18.33.2a35.72,35.72,0,0,0,5.39.29c.89,0,.82-.42.88-.57A33.88,33.88,0,0,0,158.82,109.08ZM347.45,70.69a28.49,28.49,0,0,0,5,.44c.85,0,.83-.34,1-.53A15,15,0,0,0,347.45,70.69ZM70.07,84.55c4-.11,3.48,0,3.88-.4.23-.23-2.8-.09-3.25-.07C70.56,84.09,70.44,84.26,70.07,84.55ZM30.7,64.49a23.75,23.75,0,0,0,6.94,0A53.47,53.47,0,0,0,30.7,64.49Zm242.56-8a3.49,3.49,0,0,0,.67.26c1.91,0,3.81,0,5.71-.18A44,44,0,0,0,273.26,56.51Zm-89,52.29c-.13-.83-2.64-.83-3.86-.28C179.48,108.93,182.23,109.12,184.25,108.8Zm128.08,7a3.08,3.08,0,0,0,3.19.48C316.21,116,316.31,115.26,312.33,115.75Zm-99.8-8.3c1.61.56,1.62.58,4.09-.16ZM159.36,69c1.47.22,5.46.73,4.44,0A17.67,17.67,0,0,0,159.36,69Zm120.35,2.19c3.42.54,5.68.25,5.55.08S285.08,71,285,71A23,23,0,0,0,279.71,71.17ZM109.34,90.1c1.91.28,1.91.28,5.76.05A33.8,33.8,0,0,0,109.34,90.1ZM97.43,68.47a17.75,17.75,0,0,0,3.39.24,9.36,9.36,0,0,0,1.5-.16A12.53,12.53,0,0,0,97.43,68.47ZM253,69.72c-5.14,0-4,0-4.93.17A16.61,16.61,0,0,0,253,69.72ZM288,107.4c-2.48-.3-4.64.1-4.39.26C284,108,283.43,108,288,107.4ZM56.36,55.76a24.35,24.35,0,0,0-5.39,0A51.88,51.88,0,0,0,56.36,55.76ZM308.5,54h-3c-.2.14-.19.3.12.35C306.79,54.54,309,54.6,308.5,54ZM207.39,83.57c-3.4-.38-3.4-.38-5.19,0C203.92,84,205.53,83.63,207.39,83.57Zm-94.94,4.32a15.71,15.71,0,0,0,2.89-.3l-.12-.15C112.08,87.61,112.75,87.5,112.45,87.89Zm-7.9,4.43c0-.07,0-.17,0-.21a2.45,2.45,0,0,0-1.72-.15.17.17,0,0,0-.05.33A3.58,3.58,0,0,0,104.55,92.32Zm175.12,24c-2.33-.34-2.33-.34-3.7,0A9.22,9.22,0,0,0,279.67,116.32ZM128.43,97.66a19.6,19.6,0,0,0,5,0Zm-11.36,6.75c.07,0,.12-.07.24-.15-.41,0-.78-.09-1.14-.08C111.05,104.26,113.8,104.77,117.07,104.41Zm177.36-50.2a33.61,33.61,0,0,0-4-.07c-.08,0-.2.08-.27.14S292.2,54.65,294.43,54.21Zm-2.05,54.55c1.27,1,3.61,0,2.4-.15A3.4,3.4,0,0,0,292.38,108.76Zm98.94-47.3a14.94,14.94,0,0,0-3.95,0A13,13,0,0,0,391.32,61.46Zm-87.86,2.16a1.89,1.89,0,0,0-2.34-.32S301.57,64,303.46,63.62Zm86.17,1.71c0,.2-.42.18,3.52.16.09,0,.19-.08.28-.11C393,65.23,393.81,65.24,389.63,65.33ZM141.14,67.57c0,.12-.39.09,3.5.09C144.64,67.54,145,67.57,141.14,67.57ZM155.27,103a13.56,13.56,0,0,0-3.54,0A14.91,14.91,0,0,0,155.27,103Zm11.55-33.93c.71.11,1.41.24,2.12.32.55.06.4-.35.12-.38C166.57,68.82,166.9,68.83,166.82,69.07Zm-49.89-.76c-2,0-4.56-.16-3.37.33C114.32,68.46,115.3,68.81,116.93,68.31ZM220,83.57c-2.31-.37-2.31-.37-3.46,0A11.81,11.81,0,0,0,220,83.57Zm25.39-.07c-2.91-.49-3,.58-2.5.49A6.87,6.87,0,0,0,245.37,83.5ZM127,104.35a9.81,9.81,0,0,0-3.91,0A8.47,8.47,0,0,0,127,104.35ZM306.32,83.62a7.26,7.26,0,0,0-3.33,0Zm-69.75,23.92c.17.09.31.25.51.27s.43-.11.42-.28.07-.15.05-.22a1.54,1.54,0,0,0-.17-.34C236.57,107.17,236.78,107,236.57,107.54ZM51.83,53.42c0,.06-.22,0,1.94,0C53.77,53.4,54,53.42,51.83,53.42ZM302.57,54c0-.06.22-.05-2.07-.05C300.5,54,300.28,54,302.57,54ZM41.66,100.17c-.75.07-1.64,0-1.3.42a.44.44,0,0,0,.27.14c1.39,0,1.19-.11,1.61-.34ZM121,67.65c0-.08.26-.06-2.14-.06C118.83,67.66,118.58,67.65,121,67.65Zm-81.86,14c-1.09.09-2-.26-2.9.22A6.75,6.75,0,0,0,39.11,81.65Zm12.28,6c.47,0,1-.06,1.42-.14.64-.11.52-.63-.18-.44C51.09,87.5,51.3,87.44,51.39,87.66ZM314,103.83c-.45-.22-.27-.31-1.65-.29-.2,0-.64.41,0,.47C313.6,104.12,313.5,104.06,314,103.83Zm-151.8,10.25a5.77,5.77,0,0,0,2.23,0A5.24,5.24,0,0,0,162.21,114.08Zm167-5.31c-.51-.18-1.73-.36-2-.06C327.05,108.83,328,109.19,329.18,108.77ZM240,83.66c.26-.37-1.53-.29-1.48-.16s.1.29.26.34A1.09,1.09,0,0,0,240,83.66Zm-213.75-16c.81,0,1.36,0,1.32-.14S27.16,67.35,26.21,67.63Zm4.1-.06a2.3,2.3,0,0,0,1.73,0A1.52,1.52,0,0,0,30.31,67.57Zm80.48.12c0-.08.22,0-1.43-.12C109.35,67.63,109.2,67.6,110.79,67.69Zm36.42,0a3.24,3.24,0,0,0,1.72,0A2.88,2.88,0,0,0,147.21,67.64ZM40.66,69.81a2.4,2.4,0,0,0-1.71,0A2.57,2.57,0,0,0,40.66,69.81ZM107,90.16a3.42,3.42,0,0,0-1.74,0A3.12,3.12,0,0,0,107,90.16ZM298,54.05c-.54-.33-1-.2-1.79,0Zm26.05,21.53a2,2,0,0,0,1.62,0A1.88,1.88,0,0,0,324.05,75.58Zm-22.68,29.66a2.41,2.41,0,0,0,1.66,0c-.09-.11-.17-.28-.34-.32C302,104.72,301.83,104.77,301.37,105.24ZM37.72,63.64c.59,0,2,.1,1.54-.31C39.09,63.2,38.76,63.34,37.72,63.64Zm197.33,43.77a3,3,0,0,0-1.94,0A2.82,2.82,0,0,0,235.05,107.41Zm42.33-2.25a1.72,1.72,0,0,0,1.65,0Zm16.73,0c0,.13-.23.09,1.42.15C295.55,105.14,295.76,105.18,294.11,105.13ZM40.35,87.48a2.18,2.18,0,0,0,2,.14c-.06-.1-.14-.24-.27-.27A2,2,0,0,0,40.35,87.48Zm300.78-8.07c-.13-.1-.24-.26-.4-.28a1.14,1.14,0,0,0-.62.14c-.26.16.12.43.54.37A1.52,1.52,0,0,0,341.13,79.41ZM25.56,56.61c-.52-.36-2.06-.29-1.76,0A2.26,2.26,0,0,0,25.56,56.61Zm19.65,43.72c-.71-.12-.46-.12-1,0C44.59,100.45,44.32,100.47,45.21,100.33Zm20.41,1.31c0,.08-.14.06.92.06C66.54,101.63,66.68,101.64,65.62,101.64ZM145.44,103h-.75C145,103.07,145.35,103.22,145.44,103Zm103.79.91a1.28,1.28,0,0,0-1.23,0A1.28,1.28,0,0,0,249.23,103.89Zm-20.52,1.81c.62-.12.15-.44,0-.4C228,105.59,228.32,105.75,228.71,105.7ZM69.79,87.44a3.44,3.44,0,0,0-.7-.09c-.4,0-.43.17,0,.25a2.93,2.93,0,0,0,.71,0S69.8,87.44,69.79,87.44Zm206,18.59a3.71,3.71,0,0,0,.66.15c.35,0,.51-.06.4-.16S276.26,106,275.83,106Zm120.9-40.6c-.2-.15,0-.14-.91-.05C396,65.52,395.79,65.51,396.73,65.43ZM21.86,56.61a.67.67,0,0,0-.61-.18c-.69,0-.39.35-.07.31A5.43,5.43,0,0,0,21.86,56.61Zm1.09-.9c.75.25.43.24,1.21,0C23.42,55.51,23.73,55.52,23,55.71Zm302.64,51.68c.19.15,0,.14.88,0A.87.87,0,0,0,325.59,107.39Zm-96.14,4a1.48,1.48,0,0,0-1.33,0A1.51,1.51,0,0,0,229.45,111.42Zm58.28,4.82a.78.78,0,0,0,.73,0Zm-28.38-6.63c-.88-.08-.65-.08-.86,0Zm-29-33.09c-.14-.08-.1-.19-.82,0,0,0,0,.12,0,.17S230.07,76.68,230.4,76.52Zm-8.85-23.9c-.32-.09-.24-.1-.3,0Zm-187,10.52c-1.09-.17-.71.29,0,.13C34.52,63.26,34.51,63.19,34.52,63.14Zm5.25,1.52.32-.08a.93.93,0,0,0-.27-.12c-.34,0-.49,0-.37.14A1.14,1.14,0,0,0,39.77,64.66Zm91,3c-.4-.11-.3-.13-.38,0Zm159.06,2.2c.41.11.32.13.36,0Zm-64.29.86c-.28-.08-.21-.09-.26,0ZM317,75.22c0-.16.11-.14-.32-.08ZM32.44,81.78c.42,0,.3.06.44,0C32.46,81.67,32.58,81.67,32.44,81.78Zm248.29,3.44c-.45-.16-.57.11-.11.11C280.66,85.33,280.69,85.26,280.73,85.22ZM113.8,91.89c0,.16-.12.14.34.08Zm2.34.11c.46.14.64-.12.11-.11C116.22,91.89,116.18,92,116.14,92Zm-16.27.4c0-.09.07-.07-.25-.05Zm-23,.9c0-.09.08-.07-.26,0Zm45,5.7c-.34,0-.35,0,0,.08Zm20.6,0c-.45.07-.46,0,0,.1ZM89,99.51s0-.09-.08-.1C88.35,99.29,88.07,99.62,89,99.51Zm-10,1.72c.41.06.29.07.43,0C79,101.11,79.09,101.1,79,101.23ZM148.53,103c.38,0,.27,0,.39,0C148.54,102.89,148.65,102.89,148.53,103Zm-27.76,1.37a.86.86,0,0,0-.29-.11c-.46,0-.48.08,0,.16A1.12,1.12,0,0,0,120.77,104.37Zm64.47.9c-.33-.1-.24-.12-.32,0Zm13.84,1.25c.18.34,1,0,.3,0A1.65,1.65,0,0,0,199.08,106.52Zm-17.69.52c-.12-.16,0-.15-.45-.09C181.06,107.1,180.93,107.09,181.39,107Zm14.52.4.38,0C195.92,107.35,196,107.34,195.91,107.44Zm33.92.41c.42.07.29.07.43-.06C229.84,107.72,230,107.72,229.83,107.85Zm81.41,2.67c.49.16.67-.12.12-.12C311.32,110.4,311.28,110.48,311.24,110.52Zm-51.75,6.16c-.49-.15-.67.12-.12.11C259.41,116.79,259.45,116.72,259.49,116.68Zm44.66.15.29-.08c-.08,0-.14-.11-.22-.12-.29,0-.42,0-.34.14S304.06,116.81,304.15,116.83ZM295,63.28s0-.11-.07-.12c-.37-.1-.81.11-.23.17A1.11,1.11,0,0,0,295,63.28Zm7.44,56.92c.37.09.29.1.35,0ZM89.79,52.15c-.28-.12-.15-.11-.49,0C89.58,52.23,89.44,52.22,89.79,52.15Zm181.72,54c.19-.14.21-.1-.1-.12Zm-41.23-.57c.26.1.2.12.24,0Z"/><path class="cls-2" d="M292.45,122.8l-3.05-.29c-1.06-.36,4.44-1,10.7-.56,5.13.33,18,.39,18.08.39a89,89,0,0,0,10.57,0,1.88,1.88,0,0,1,1.36.35c.19.16.16.41.23.61-3.16,1-8.33,1.07-11.95,1C288.47,123.66,291.54,123.6,292.45,122.8Z"/><path class="cls-2" d="M81.46,113.56c.09.34.16.63.23.91a6.43,6.43,0,0,0-2.09.58c-.87,1-2.62,1-3.9,1.15a3.91,3.91,0,0,0-3.37-.73c-1.72.34-2.25-.13-9.64,1a3.74,3.74,0,0,1-1.88-.13c.83-1.25,7.87-.62,12.46-2.1.79-.26,1.72-.36,2.53-.6a39.49,39.49,0,0,1,9.9-1.36A16.53,16.53,0,0,1,81.46,113.56Z"/><path class="cls-2" d="M82.3,49a3.08,3.08,0,0,1,.71-.17c35.73,0,30.93,0,32.86.18-2.67.55.14.09-32.14.24A2.76,2.76,0,0,1,82.3,49Z"/><path class="cls-2" d="M54.84,118.66c-.51.44.36.13-3.32,1.2-1.49-.4-1.49-.22-1.24-1.64.24-.14.38-.31.6-.34,2.58-.42,5-1.23,7.83-1.21-.46.62-.76,0-.6,1.36l-3.35.68a2.8,2.8,0,0,0-2.54-.22Z"/><path class="cls-2" d="M12.23,52.2c.81-.49-1.67-.3,25.14-.14a8.75,8.75,0,0,1,.92.14C36.64,52.27,13.15,52.59,12.23,52.2Z"/><path class="cls-2" d="M18.91,88.89c0,.59-.39.53-4.46.57-12.1.1-9.9.12-11.15-.14.46-.22-.79-.15,7.74-.61,3.33-.19,4,.22,5.76-.15A2.86,2.86,0,0,1,18.91,88.89Z"/><path class="cls-2" d="M77.23,110c-.88.45-1.64-.28-2.54,0-1.29.32-2.4-.36-7.75-.2a8.83,8.83,0,0,1-2.71-.13c1.24-.62,2.69,0,4-.24,1.93-.87.68-.76,6-.46A8.67,8.67,0,0,1,77.23,110Z"/><path class="cls-2" d="M59.14,49.26c-.12,0-.25-.16-.34-.26s1.79-.28,2.23-.28C84.59,48.8,90,49.29,59.14,49.26Z"/><path class="cls-2" d="M20.61,84.49c-2.8.07-16.45.36-19.21.12-.33,0-.56-.38,0-.4,1.57-.06,3.14-.15,4.7-.1C12.76,84.32,16.74,83.62,20.61,84.49Z"/><path class="cls-2" d="M374.66,70.67a5,5,0,0,1,1.09-.2,28.48,28.48,0,0,0,5.77-.19c.09,0,.65.27.39.47a2.71,2.71,0,0,1-1.58.58A12.78,12.78,0,0,1,374.66,70.67Z"/><path class="cls-2" d="M277.19,51.31c.77-.26-1-.22,12.73-.14a1.12,1.12,0,0,1,.33.1,11,11,0,0,1-3.09.12c-4.12.12-5,0-6.67,0A13.69,13.69,0,0,1,277.19,51.31Z"/><path class="cls-2" d="M173.89,49.5c-5.5.43-24.39-.27-.6-.17A2.36,2.36,0,0,1,173.89,49.5Z"/><path class="cls-2" d="M205.82,49.47a3.31,3.31,0,0,1-.87.4,16.09,16.09,0,0,1-5.32-.12.39.39,0,0,1-.36-.32A24.64,24.64,0,0,1,205.82,49.47Z"/><path class="cls-2" d="M339,51.12c2.19-.35,3.27,0,5.68-.33a7.63,7.63,0,0,1,1.9.08c.17,0,.27.21.41.32a.63.63,0,0,1-.55.19C344,51.26,341.56,51.48,339,51.12Z"/><path class="cls-2" d="M334.52,118.36a13.41,13.41,0,0,1-5.93-.4C330.89,118,335.41,117.59,334.52,118.36Z"/><path class="cls-2" d="M355.69,108.17c-2.25.71-4.73.27-3.47-.31C354.85,106.64,357,107.76,355.69,108.17Z"/><path class="cls-2" d="M265.36,51.27c.73-.24-.8-.25,8.41-.17.14,0,.28.15.41.23-.53.17.3.17-7,.16A4.35,4.35,0,0,1,265.36,51.27Z"/><path class="cls-2" d="M337.66,114.12a8.62,8.62,0,0,1-5.51-.56A12.85,12.85,0,0,1,337.66,114.12Z"/><path class="cls-2" d="M355.13,67.72a50.24,50.24,0,0,1,6.05-.21C360.5,67.85,360.28,67.76,355.13,67.72Z"/><path class="cls-2" d="M12.34,96.29A11.24,11.24,0,0,1,9,96.58a6.07,6.07,0,0,1-2.56-.23A1.56,1.56,0,0,1,7,96.1,20.6,20.6,0,0,1,12.34,96.29Z"/><path class="cls-2" d="M348.84,98.9a5.54,5.54,0,0,1,3.6,0c0,.26.09.49-.31.63a4,4,0,0,1-1.86.06C349.76,99.56,349.57,99.46,348.84,98.9Z"/><path class="cls-2" d="M250.93,117.63c-1-.33-2.05.41-3-.15a1.78,1.78,0,0,1,1.56-.53C252.4,117,251.49,117.83,250.93,117.63Z"/><path class="cls-2" d="M356,94.63c.31,1.25-.81,1.1-2.39.91C354.07,94.88,355.15,94.84,356,94.63Z"/><path class="cls-2" d="M123.52,49a3.42,3.42,0,0,1-1.83.25C116.21,49.28,118.66,48.67,123.52,49Z"/><path class="cls-2" d="M88.12,113.51a2.4,2.4,0,0,1,1,.24c.23.09-.16.41-.59.44C84.5,114.47,86.5,113.6,88.12,113.51Z"/><path class="cls-2" d="M12.93,81.19c-.21-.2-.12-.48.22-.51C17.8,80.28,14.22,82.36,12.93,81.19Z"/><path class="cls-2" d="M179.3,49.59c-4.51-.12-4.51-.05,0-.21Z"/><path class="cls-2" d="M68.15,116.7c-2.51.42-2.59.48-2.71.26C65.19,116.52,67.78,116.68,68.15,116.7Z"/><path class="cls-2" d="M132,49.22a6.69,6.69,0,0,1,3.24-.14C134.32,49.43,133.34,49.14,132,49.22Z"/><path class="cls-2" d="M361.44,104.9c-.23.59-1.51.48-1.48.06s.57-.48,1.1-.35C361.23,104.65,361.31,104.8,361.44,104.9Z"/><path class="cls-2" d="M188.25,49.45a4.79,4.79,0,0,1-2.6,0A8.13,8.13,0,0,1,188.25,49.45Z"/><path class="cls-2" d="M292.28,51.24a9.39,9.39,0,0,1,2.8,0A6.3,6.3,0,0,1,292.28,51.24Z"/><path class="cls-2" d="M2.24,61c-.6.26-2.11.66-2.24.28C-.06,61.1.66,60.66,2.24,61Z"/><path class="cls-2" d="M19.25,95.91a4.19,4.19,0,0,1,2.48,0A3.76,3.76,0,0,1,19.25,95.91Z"/><path class="cls-2" d="M138.49,111.88a6.19,6.19,0,0,1,2.81,0A10.11,10.11,0,0,1,138.49,111.88Z"/><path class="cls-2" d="M358,102.65a3.5,3.5,0,0,1-.56.22,2,2,0,0,1-.63-.43c-.06-.07.5-.43.7-.27A5.58,5.58,0,0,1,358,102.65Z"/><path class="cls-2" d="M349.67,102.94c-.18-.15-.16-.27.1-.38l2,.39A3.92,3.92,0,0,1,349.67,102.94Z"/><path class="cls-2" d="M359.32,103.62s.71-.16.77.12-.3.27-2.07.31a.93.93,0,0,1-.34-.1C358.05,103.61,357.58,103.68,359.32,103.62Z"/><path class="cls-2" d="M342.15,67.56h1.73A1.8,1.8,0,0,1,342.15,67.56Z"/><path class="cls-2" d="M379.38,67.52H381A2.08,2.08,0,0,1,379.38,67.52Z"/><path class="cls-2" d="M60.62,117.6a2,2,0,0,1,1.56-.32C62,117.78,61.83,117.72,60.62,117.6Z"/><path class="cls-2" d="M155.24,115c-1.51.18-1,.18-1.89-.08C154.86,114.79,154.35,114.79,155.24,115Z"/><path class="cls-2" d="M383.85,70.77c-.62-.11-.59-.65.35-.64.38,0,.56.28.3.47A3,3,0,0,1,383.85,70.77Z"/><path class="cls-2" d="M6.05,61c-.83.25-.67.29-1.44.16,0,0-.06-.25.41-.24C5.31,61,5.6,61,6.05,61Z"/><path class="cls-2" d="M18.63,78.74c-.16.1-.29.27-.47.29-.42,0-1-.48-.16-.43A3.56,3.56,0,0,1,18.63,78.74Z"/><path class="cls-2" d="M140.19,49.11a1.94,1.94,0,0,1-1.74,0A2.07,2.07,0,0,1,140.19,49.11Z"/><path class="cls-2" d="M72,116.25c.87-.14.6-.12,1,0C72.49,116.4,72.75,116.42,72,116.25Z"/><path class="cls-2" d="M354,93.35c-.88.07-.62.07-.95-.06.2-.09.08-.14.91-.06C354,93.23,354,93.31,354,93.35Z"/><path class="cls-2" d="M157.11,115a1.34,1.34,0,0,1,1.43,0A1.78,1.78,0,0,1,157.11,115Z"/><path class="cls-2" d="M116.34,113.66c-1.08-.06-.94,0-.93-.12C116.49,113.62,116.35,113.59,116.34,113.66Z"/><path class="cls-2" d="M131.29,111.79c-.11.2-.47.06-.68,0Z"/><path class="cls-2" d="M133.78,107.59l-2-.07C133.25,107.05,133.52,107.73,133.78,107.59Z"/><path class="cls-2" d="M153.4,49.53c-.17-.06-.44-.11-.47-.19s.18-.25.42-.18.24.18.35.28Z"/><path class="cls-2" d="M127.83,49.05a1.64,1.64,0,0,1-1.32,0A1.68,1.68,0,0,1,127.83,49.05Z"/><path class="cls-2" d="M324.38,80.32a.38.38,0,0,1-.21.14C323.24,80.66,323.31,79.53,324.38,80.32Z"/><path class="cls-2" d="M335.08,72.56c-.9.06-.64.07-1-.07.18-.11.05-.19.91-.06C335.06,72.43,335.06,72.52,335.08,72.56Z"/><path class="cls-2" d="M274.76,81.75c-.08,0-.21-.07-.24-.11-.15-.21,0-.41.43-.45a1.89,1.89,0,0,1,.57.14C274.94,81.76,275.14,81.63,274.76,81.75Z"/><path class="cls-2" d="M4.37,56.14c-.4,0-.29.06-.4-.07C4.38,56,4.26,56,4.37,56.14Z"/><path class="cls-2" d="M369.22,67.64c-.35,0-.29,0-.23-.07Z"/><path class="cls-2" d="M377,67.56c0,.1.05.08-.26,0Z"/><path class="cls-2" d="M368.06,77.41s.06-.1.1-.1C368.65,77.3,368.5,77.56,368.06,77.41Z"/><path class="cls-2" d="M318,80.18c.3,0,.26,0,.11.15Z"/><path class="cls-2" d="M349.61,90.66a1.2,1.2,0,0,1-.35,0c-.25-.1-.16-.17.25-.16C349.54,90.54,349.58,90.62,349.61,90.66Z"/><path class="cls-2" d="M352.19,90.63c-.84.12-.59.11-.87,0C352.13,90.47,351.88,90.47,352.19,90.63Z"/><path class="cls-2" d="M2.29,91a1.21,1.21,0,0,1,.31-.06c.6.08.13.32-.24.2C2.31,91.08,2.31,91,2.29,91Z"/><path class="cls-2" d="M20.41,93.3c-.84.16-.59.15-.89,0C20.37,93.12,20.12,93.13,20.41,93.3Z"/><path class="cls-2" d="M355.31,102.22c.06.21.1.17-.13.14Z"/><path class="cls-2" d="M55.77,105.22c-.44,0-.36,0-.3-.09Z"/><path class="cls-2" d="M118.81,113.57c0,.13.08.11-.3.05Z"/><path class="cls-2" d="M167.42,115.76c1-.13.66.25.09.11C167.46,115.86,167.45,115.8,167.42,115.76Z"/><path class="cls-2" d="M330.67,120.68c-.37,0-.26.06-.37-.07C330.67,120.56,330.57,120.56,330.67,120.68Z"/><path class="cls-2" d="M157.48,49.39c0,.12.06.11-.24,0Z"/><path class="cls-2" d="M183,49.52c-.37,0-.23.06-.55-.05C182.79,49.43,182.65,49.41,183,49.52Z"/><path class="cls-2" d="M406.25,52.1s-.07.1-.11.1C405.63,52.22,405.78,52,406.25,52.1Z"/><path class="cls-2" d="M392.78,78.48l.28-.21s0,.11-.06.12C392.75,78.47,392.59,78.38,392.78,78.48Z"/><path class="cls-2" d="M73.69,121.75l.09,0a1,1,0,0,1,.79-.44C74.47,121.3,74.62,121.25,73.69,121.75Z"/><path class="cls-2" d="M73.69,121.75c-.16.2-.19.19.09,0Z"/><path class="cls-2" d="M134,107.73c-.1.1-.17,0-.2-.14C133.67,107.65,133.63,107.62,134,107.73Z"/><path class="cls-2" d="M36.91,83.82c10.07-.27,5.59-1.84,10,.33a78,78,0,0,1-9.67,0C37.08,84.14,37,83.94,36.91,83.82Z"/><path class="cls-2" d="M33.41,56.34c.26-.13.65-.38.88-.25.49.29-.49.22-1,.19Z"/><path class="cls-2" d="M326.9,38.36c2.42.3,1.65.36,3.54-.38,7.87-.15,6.92-.35,6,1.06.49.06.93.15,1.39.18.81,0,1.76,0,2,.46s-.92.33-1.12.59c.29.25-.69.12,7.81.74,2.08,1.23,3.26.36,8.72.74.74,0,1.49.24,1.4.74l-4.86.47a21,21,0,0,0-6.07-.14l1.9.6c.47.7-2.57.54-11.76.54a22.6,22.6,0,0,0,5.87.59c3.74,0,3.36-.51,5.55,1a8,8,0,0,0,4.46-.74,49.74,49.74,0,0,1,8.13.52c2.34-.85,3.93-.57,3.7-.84s-.31-.56.25-.77c3-1.14,7.32.45,11.77.24,5.54,1.71,6,2.1,8.89,1.89.76.38,1.89.62,2,1.16-.34.28-1.12.26-1.57.44-.28.12-.34.33-.48.48,3.21.92,6.75.72,10.15.91-7.06.12-9.14.32-12.44,0-.81-.09-4.25.33-5.78-1.1-.06-.06,0-.14,0-.26,1.45-.22.44-.21,3.72-.14a3.25,3.25,0,0,0,.59.31c.58.17.95-.19.24-.24-.3,0-.62,0-.93,0,0-.07,0-.18-.14-.2-4.73-1.08-5.62-1.37-8.09-1.28-17.73.68-8.35.19-7.42.57,1.46.59,2.82.34,5.24,1.14,1.37,0,2.89-.26,4.19.19a8.24,8.24,0,0,1,.94.45c-.77.39-2,.48-2.46,1-3.19.15-3.51.25-5.28-.07a21.34,21.34,0,0,0-6.25-.24c-2,.24-2.67,0-6.31.18.12.4.7.55,1.32.59,4.17.27,4.29-.4,7.85,1.26,2.91.37,6-.08,8.77.5.47.1.21.27-.28.86a35,35,0,0,1,5.26.71c-2.32.88-9.63,0-17.72.37.09.15.08.31.25.37a23.43,23.43,0,0,0,7.48.81c6.59-.15,4.38.41,8.73.22,2.06-.08,3.09.76,1,.91a39.52,39.52,0,0,1-4.29-.38,18.07,18.07,0,0,0-2.87,0c-.8,0-1.59-.15-2.38-.23-7.2.8-6.15.71-7.65.74-10.9.21-9.1.57-14.62.31a31,31,0,0,0-4.86.32,4.36,4.36,0,0,0,1.19.38c11,.21,9.13-.8,13.39.94,4.43.78,7.92-.16,10.59.19a14.59,14.59,0,0,0,4.8,0c3.57-.09,8.53-.19,11.11.87a6.81,6.81,0,0,1-2.41.15c-.58.05-.74.21-.56.44,2.11.66,4.72.48,7,.71.46.49-.18.72-.83.94a14.51,14.51,0,0,1-2.81.34c-.81.08-1.21.54-.72.84s1.55.58,1.4,1c-1,.33-.15-.08-5.68.74a16.7,16.7,0,0,0-4.2-.09,9.33,9.33,0,0,1-2.42,0,42,42,0,0,0-4.89,0c-2.6.13-5.21,0-7.82,0-1.79,0-3.53.21-5.37.12a42.9,42.9,0,0,0-6.76.36,2.69,2.69,0,0,0,.76.27c13.69.72,18.36.15,18.63.16,5.6.14,9.07-.2,10.26.07,2.27.54,4.8.35,7.21.51a14.69,14.69,0,0,0,5.56-.63c6.38.47,4.13.33,9.05.49-.59.58-1.56.44-7.07.71a6.43,6.43,0,0,0-1.05.23c6.06.47,13.88,0,16.9.35a2.81,2.81,0,0,1-.67.23c-15,.65-13.94.11-22.37.54,2.76.71,5.64.59,8.43.79.07.37.13.71.2,1.07l-2,.58a13.63,13.63,0,0,0-3.4-.21c-2.42.45-2.26.22-10.23.23-3.59,0-3.13.26-3.78.66,6.28.37,12.84.07,14.91.3a18.36,18.36,0,0,0,3.4-.1,13.53,13.53,0,0,1,1.4.07c-.09,1.24-5.32,1.21-8.12,1l-35.2.59c-.11.19-.32.34-.22.42a1.58,1.58,0,0,0,.8.18c2.6-.21,5.23-.14,7.85-.15a17.1,17.1,0,0,1,6.29.82c4.54.25,22.34-.17,29.72.06-.09.42-.41.18-6.28.53-1.46.08-2.82-.24-4.36-.07a32.6,32.6,0,0,1-4.1-.1l-3.51.53c-3.87-.27-5.66-.12-13.25,0a1.54,1.54,0,0,0-1.25.52,9.43,9.43,0,0,0,2.35.22c.95.1,1.87.25,2.8.38.72.09,1.64,0,2.16.37-14.55.4-14.92.22-20.07.61-3.18.25-6.46.14-10.43.52,2,.25,3.26.41,4.49.53,2.35.24,7.47,0,10.78,0,1,0,1.94-.14,3.07-.23l4.23.5c-1.59.84-7.58.61-9.71.53-10.45-.4-12.34.09-18.65-.06-1.51,0-2.55.6-4.16.55-5.13-.13-3.78-.66-4.78-.47,1.32.13,1.46,0-1,.78a26.5,26.5,0,0,0-6.23.11,2.69,2.69,0,0,1-.49,0c-3-.24-5.86.15-8.79.11-5-.07-4.1-.37-5.82-.19-4,.42-4.47-.47-8.22.21-.83.15-1.65-.14-2.39,0a10.36,10.36,0,0,1-2.36,0c0,.23.07.43.11.61a7.3,7.3,0,0,0,1,.14c16.14.15,12.4-.47,16.17-.16a34.39,34.39,0,0,1,3.8,0c1.57.28,20.47,0,22-.12a2.69,2.69,0,0,1,1.65.35c1.25,1-5.63.28-13.25.75-.9,0-28.21,0-30.94.28.77.39-.72.36,9.9.34,5.09.8,12.35-.27,34.82.21a5.75,5.75,0,0,1,1.67.4c.18.06.49.45,0,.5s-1.29.13-1.92.12c-5.68-.15-15.18.26-20.7-.18a13.28,13.28,0,0,1-2.2.35c-4.24-.06-8.49.37-12.73,0-2-.19-7.53.81-12-.4a5.23,5.23,0,0,0-2.74.08c-2.1.57-11.77.58-14,.59-40.36.14-28.82.3-32.88.19-1,0-2-.15-2.92-.08-5.76.47-18,0-21.1.27-5.56-.25-11.14.2-16.71-.1-1.59-.08-3.26.1-4.89.14a24,24,0,0,0-3.89.11c-.18,0-.25.21-.3.32a1.36,1.36,0,0,0,.85.15c5-.37,10.16,0,15.22-.2,6.71.42,90.11-.41,96,.15-.81.09-1.25.18-1.69.18-18.91.23-15.64,0-17.37.57l-3.25-.33a36.68,36.68,0,0,1-9.24.09c-2.62.33-.58.2-23.52.27-10.53,0-10.16-.12-10.11.26,0,0,42.45.13,46-.34a13.43,13.43,0,0,0,2.84.31c14-.1,11.8.2,14.76,0,6.46-.52,37.35-.35,30.63,0-9.15.43-102,1.15-105.46,1.34-4.43.24-3.4-.15-14.74,0-2.72,0-23.79.68-28.94-.16-3.77-.62-4,.42-7.22.1-2.73-.26-5.53-.32-8.22-.67a38,38,0,0,0-9.24-.13c-3.12.35-9.2-.12-10.76-.1-6.44.06-6.1,1.44-14.71,1.47-18.94.07-16.62,0-17.25.44-1,.66-2,.24-4.28-.27-4.15-.27-13.2-.24-15.11-.12-2.51.16-4.67-.76-7.2-.47a29.4,29.4,0,0,1-7.24-.31,18,18,0,0,0-8,.74c-5.44.34-3.07-.7-8.08-.9C53.86,86,53.78,87,44,85.52c-.11,0-.21-.13-.19-.19a.5.5,0,0,1,.31-.14c4.91.22,28.23-.28,29.47-.24.78,0,1.39-.3,1.38-.48s-.67-.36-1.07-.32a13.56,13.56,0,0,0-1.78.32,33.66,33.66,0,0,1-4.84-.28,14.79,14.79,0,0,0-2.43-.06c-9.18,0-7,.14-8.45-.22,1.52-.62,1.46,0,12.28-.27a5.07,5.07,0,0,0,.88-.19c-9.78-.61-8.27.51-19-.7-.57-.64.87-.67,1.51-.88-.26-.13-.34-.2-.42-.2-10.76-.28-1.38.26-13.18-.24-.91-.39-1.42-.8-1.18-1.33,2.25-.73,2.25-.73,6.25-.62.43-.43-1-.33-.48-.75,3.13-.35,6.42,0,9.61-.31-.64-.65-2.63-.66-3.14-1.32-1.57-.23-.3-.34-8.24-.27-1.28,0-4.35-.09-5.12-.52.66-.33-1.23-.24,11.83-.33,13.93-.1,13.18,0,14.18-.28.58-.14.29-.65-.14-.67-15.83-.63-17.32.14-34.18-1.14,0-.44,1-.31,1.33-.61-.07-.28-1-.21-1.3-.41-.14-.09-.05-.25-.07-.41l2.88-.3c1.44-1.86,8-.58,8.09-1.69,0-.22-.48-.48-1.26-.53-3.37-.24-2.9.26-9.75-.41-.4-1.11-.15-.76-1.32-1.29l1.08-.44c-.61-.61-.83-.42-1.7-.89-.12-.07,0-.32.17-.36.69-.16,1.43-.27,2.22-.4-1.55-.6-4.14.07-7.12-.37.83-.75,2.5-.1,3.6-.53l.47-.51c2.06-.31,1.61-.1,2.16-.88,7.47-.61,11.1.65,16.53-1.12-1-.12-2.18-.31-3.37-.38s-2.6.08-3.9-.12c-1.54-.23-2.79.46-5.77,0-1-.16-2.42.35-3.6-.31-.57-.32-1.11-.65-1.65-1l2.63-.48a12.56,12.56,0,0,0,4.24-.38l2.08.47c2.32-.18-.27-1.51,6.82-.92a18.43,18.43,0,0,0,4.34.15c.36-.27-.24-.37-.56-.38-10.93-.43-10.72,0-10.31-1,8.38,0,1.69.24,10.41-.34a93.81,93.81,0,0,0-11.36,0L32.61,59l-4.7-1.35.52-.43c-.23-.32-1.21-.48-1-1l1.31-.61a8.19,8.19,0,0,1,1.29,0,46.27,46.27,0,0,0,7.17.65,10.46,10.46,0,0,0,1.73-.17c.26-.3-.16-.63.82-.69a10.2,10.2,0,0,0,1.3-.24c-.79-.5-2.19-.12-3.12-.45a3.8,3.8,0,0,1,.72-.21c15-.15,15,.14,12.47-1.2.5-.29,1.22-.53,1.41-.84.45-.69,1.62-1,2.92-1.31l-.26-.45a34.33,34.33,0,0,0-5.3,0c-3.91.05-4.19,1-10.53.77a4.42,4.42,0,0,1-.82-.22c1-.46.31-.43,2.91-.6,5.06-.32,6.57-.81,10.11-.65a3.45,3.45,0,0,0,2.65-.79c1.1-1.43,1.4-.23.2-2.82a13.75,13.75,0,0,0-1.76-.29c-6.3-.31-14.89.47-9.57-.79v-.85c2.11-1.39.71-.68,3.74-1.08A5.76,5.76,0,0,0,48,43l-.11,0c7.81,0,5,.05,11.35-.18,2.64-.72,1.53-.63,5.22-.4l3.45-1a4.64,4.64,0,0,0-1.14-.33c-3,.08-4.35.33-5.34.13-5.26-1.08-7.74-.58-17-.84-1.12,0-2.21-.25-3.33-.31-1.62-.09-3.26-.09-5.34-.26,1.23-.16.72-.27,7.4-.24,21.77.09,16.63.31,18.78-1.46-1.69-.66-9.9.12-14.28-.41-2.36-.28-5.9,0-8.24-.47a5.79,5.79,0,0,1-1-.4c1.24-.61,3.09-.45,4.47-.7,0-.12.19-.31-.41-.34-5.72-.3-15-.09-14.86-.68.19-1-1.61-.28-1.3-.9,11.31-.67,7.21.7,12.29.56,9.94-.27,10.27-.15,17.24,0-1-.52-2.48-.48-3.66-.84.21-1.23,1.46-1.08-10.89-1-7.19,0-3.75.43-14.68-.11a.66.66,0,0,1-.31-.15,1.39,1.39,0,0,1,.58-.23c8.47-.05,22.28,0,25.93-.23.76-.72.55-.64-16-.67a85,85,0,0,1-11.11-.65c7.67-.37,26,.92,27.49-.36,0-.5-1.61-.44-1.73-.91a33,33,0,0,1,5.7-.49c1.91.54,4.4,0,5.62.51-1.43.66-4-.07-5.89.47l1.75.8a49,49,0,0,0,7.76-.05c3.54-.27,24.67.52,34.46.2-.11-.49-1.18-.31-1.68-.5,0-.12,0-.25,0-.37-11.78-.8-16.43.86-25.93-.63a15.91,15.91,0,0,1-5.58.1c1.9-.27,4-.24,5.64-.88-1.64-.48-.45-.42-7.12-.19-8.34.29-5.35.28-9.74.05a25,25,0,0,1-4.27-.43,22.11,22.11,0,0,0-3.32-.15v-.61c-9.81-.61-12.63.7-13.84-.34a2,2,0,0,1,.64-.22c17-.5,1.9-.32,19.15-.46,6-.05,3.46-.24,9.81-.09.31,0,.63-.06,1.05-.1q0-.37.09-.78c.52-.34,1.83-.34,2-.84l-1.56-.57a22.06,22.06,0,0,1,4.56-.76c-2-1-5.3-.16-15-.68-.24,0-.57-.37.21-.45,2.76-.27,8,.12,13.21-.19,1-.06,2,.06,3,.07a59,59,0,0,0,7.83-.2c4.75.05,9.51-.15,14.27.11,12.12.67,13.32-.68,11.67-.74-5.23-.19,3.42-.12-37.42-.15-17.78,0-15.51.23-14.55-1.58a14.3,14.3,0,0,1,1.87-.24C72.49,19.18,77.29,19.6,83,18c3.23-.36,2,.49,6,.14a4.13,4.13,0,0,1,2.23.28,1.62,1.62,0,0,0-1,.43c-.39,0-.83,0-1,.17a2,2,0,0,0,.37,0c.88-.29,0-.26,1.72-.24,1.54.35-.64.28,8.59.28,0-.21,1-.14-8.7-.23l0-.49A11.09,11.09,0,0,1,95,18.32a7.59,7.59,0,0,0,3.64-.38c.6-.23.37-.66.33-.93-1-.42-2.3-.2-3.37-.35a17.76,17.76,0,0,0-2.92,0,5.94,5.94,0,0,1-1.16-.18c.32-.44,1.12-.58,1.89-.84,10.27-.26,10.52-.09,13.78-.89,3.52-.07,7.17.35,10.49-.55,2.49.52,7.49.54,8.77-.35L118,13.69c.58-1,3.36,0,9-.93a23.69,23.69,0,0,1,2.43-.1c8.76-.45,8.75-.77,10.6-.35a3.07,3.07,0,0,0,1,0c2.86-.38,5.85-.24,8.37-.33,1.72-.24,1.28-1,3.33-1.06,5.16-.15,9.45,1.06,10.85,1.08a54.49,54.49,0,0,0,11-.73,16,16,0,0,1,4.08-1.37c.06-.79-.8-.85-5.28-1.07-8.32-.42-7.25-.09-7.41-.71.52-.15-.65-.05,6.22-.55,2.31-.17,3,.59,5.89-.08,1-.82,1.34-1.2,2.21-1.2,6.09.05,5.81.5,9.76.2,2.8-.21,5.54.1,8.32,0a18.35,18.35,0,0,1,2.88.24c1,.14,1.92-.27,2.8,0l.39.43c4,1,10.87.12,12.13,1.11l-6.82.09a36.79,36.79,0,0,0,6.12.16c.23,0,.41-.2.61-.3a13.8,13.8,0,0,1,3.25-.43c3.77,0,7.41-.43,10.82-.52,1.44-.22-.6-.29-.84-.27-1.57.1-2.7-.47-4.22-.47-10.5,0,1-.82,9.56-.27.93,1.64,1,.5,4,1.22.12.4-1,.45-1.24.78a5.74,5.74,0,0,1-1.34.88c1.53.72,1.3.49,1.19,1,2.42.72,5.09,0,8,.38-.66,1-2.62.59-4.68.63a8,8,0,0,0-1.3.24,4.53,4.53,0,0,0,1.88.28c3.75-.09,7.53.07,11.23-.36.86-.1,1-.11,13.59.66.6,0,1.28-.21,1.81.09-2,.7-4.83,0-8.36.83a1.79,1.79,0,0,0-1.1-.35c-4.89-.11-15.75-.19-23.36.42a11,11,0,0,1-3.74,0c-1.58-.6-2.35-.45-13.72-.4-1.52.48-2.84,1-4.5.31.35-.13.31-.14.11,0a28.65,28.65,0,0,0-2.9-.2c-3.68.12-7.39.09-11.11.41a20.83,20.83,0,0,0,8.4,1.45c2.7,0,1.68-.07,3.06.3-2.65.19-5.14,0-7.45.3.17,1.36-2.2,0-7.78.65-.82.09-3.52-.88-7.05.25,3.2.2,6.22.51,9.27.56,20.26.36,17.79.19,18.7-1.39a18.12,18.12,0,0,1,2.64-.58c1.22-.11,1.78-.59,3-.75l1.31.63c8.9,0,7.24.19,9.64-.74,3-.12,15-.23,15.15-.24,5.64,0,5.47-.64,7.18-.53,1.52.1,2.92-.16,4.39-.18.92.44,1.47.36,5.62.51,2.86.67,6.05.5,9.09.63a11.19,11.19,0,0,1,2.19,1.69c7.17,1.21,3.5-.21,14.94,1.25l1.38.83a5.24,5.24,0,0,1-1.19.33c-11.79.38-22-.06-25,.94,2.8.26,67.51.15,69.28.27-.73.36.15.42-5.63.41-50.69-.07-56.36,0-57.54.52a2.38,2.38,0,0,0,.66.2c.5,0,.81-.13.87-.35a38.37,38.37,0,0,1,5.76.47c5.66.54,7.5.36,13.69.28,3.76-.05,4.21,1.1,8.94.91,1.4-.05,10,1.08,16,1,.3,0,.61.08,1.29.17-4.78.29-9.28,0-13.69.36,5.29,1.24,11.4.52,15.35.9,1.55.15,1.66-.46,7.27-.29,6.68.19,6.95-.13,9.33.84,3.45,1.4,6.23,1.49,7.16,2.77a5.91,5.91,0,0,0,1.32.87,29.07,29.07,0,0,1-11.25-.71c1.48-.92,1.29-.38-2.33-.91-2.93-.43-2.72-.88-6.55-.43-2.48.29-3.93.06-2.8.1.11.46-.29.17,1.22,1.08-3.42,1-5-.34-14.05.3-.37,0-.82.3-.81.48s.53.61,1.07.62c8.41.13.67-.33,15.14.28a9,9,0,0,1,1,.13,18.81,18.81,0,0,1,5.34-.19l1.19,1c1.76.29,2.58.33,3.38,1s-.3,1.22-1.64,1.17c-.79,0-8.54-.35-9.21-.53-.87-.62.49-.53,3.45-.7,0-.84-.55-1.18-1.94-1.18-4.92,0-9.84,0-14.75,0s-3.51.45-9.74.47c-37.56.12-45.18-.24-42.57.42,1.6.4,5.07-.2,10.68.14,6.09.36,7.85-.3,10.25-.27,20.64.22,5.28.26,21.08.46a65.8,65.8,0,0,1,8.31.23c1.42.2,2.79-.51,4.6.25a3.34,3.34,0,0,0-1.87.56c2.72.39,3.15.4,4.68.05-.75-.41-2.26-.18-2.94-.65a14.64,14.64,0,0,1,4.26-.31c5.37-.21,3.79,1.43,8.13,1.52,7.71.16,4.2.71,7.18.35,2.41-.29,1.83.46.09.54-6.64.31-6.87-.77-9.62-.22-.5.09-.58.29-.47.52,4,.59,5.37-.21,14,.21,1.21.72-3,.58-3.8.72a11.15,11.15,0,0,1-3.36-.08c-4.43-.6-7.2.56-11.6-.2-.27,0,0,0-6.73.08-1.31.76,1.21.3,1.95.6,2,.82,5,.44,7.64.25,5.51.49,4,.31,5.38.73-1.41.23,1.93-.5,3.43-.78,1.17-.22,2.86,0,3.29.57s1.49.77,1.15,1.4c-5.77.45-9-.28-9.84.95-2.05-.22-4.19-.07-6.27-.33a19.1,19.1,0,0,0-4.83.06c-.39,0-.52.42.07.45,3.4.2,6.82.16,10.23,0A2.5,2.5,0,0,0,326.9,38.36ZM141.53,84.15c-.59.14-.11,0-.11-.05C141.83,84,141.8,84,141.53,84.15ZM373.17,67.6a3.61,3.61,0,0,0-1.79,0c-.29.35-1.4.63-.47,1.13h3.32c-2.11-2.15-1.07-.55,3.2-1.3A8.58,8.58,0,0,0,373.17,67.6Zm-9.81-5.5a2.11,2.11,0,0,0-1.49-.4,3.69,3.69,0,0,0-.79.16c.58.28-.09.24,2.37.19-1.2.77-2.15,0-5.32.67-.31.07-.22.25.05.36,3.31.48,6.52.09,10.3-.18-1-.39-1.09-.83-2-1.06A6.81,6.81,0,0,0,363.36,62.1ZM63.57,51c2.39.05,4.86-.19,7.08.44a4.11,4.11,0,0,0,1.4,0c1.53-.27,3.69.28,5-.92-.4-.55-.94-.88-12.84-.1-.71.9-.36.53-.9.67-.06,0-.06.08-.09.12Q63.6,51.3,63.57,51ZM99.71,23.39a6.3,6.3,0,0,0-3-.56c-4.08.06-8.17-.13-12.25.08-1.86.1-3-.5-9.71.17a4.48,4.48,0,0,0-.84.27l1.06.49c1.42.27,2.63-.06,3.71.24-.51.58.49,0-3.95.89-.31.06-.41.32-.6.49,1.49.37,3.06-.06,4.53.27,2.11.8.64.63,6.89.63a17.17,17.17,0,0,1,6.61-.82c1.31,0,2.65.07,3.91,0,1.87-.15,3.94,0,5.59-.54.35-.12.77-.21.47-.41a70.24,70.24,0,0,0-9.31.19A44.14,44.14,0,0,0,88,24.36a26.37,26.37,0,0,1-5.52-.29A53.12,53.12,0,0,1,88.34,24C90.13,24,91.36,23.91,99.71,23.39ZM148.12,14a24.39,24.39,0,0,0,3.65,1.12c5.23.05,18.55.07,26.86-.19-8.65-.46-16.47-.15-24.12-.4l-1.26-.64A31.61,31.61,0,0,0,148.12,14ZM291.7,21.43c-2,.07-4.31-.12-6.53,0-1.34.7-1,.46-1.09.93a4.15,4.15,0,0,0,.84.16c11.35.07,11.92-.1,13.63.35a2.14,2.14,0,0,0,1.45-.07,8.46,8.46,0,0,0-3.27-.42C294.14,22.46,293.55,21.89,291.7,21.43Zm81.5,37.78a33.82,33.82,0,0,0-4.75-.36c-2,.15-7.29-.15-8.79,0a37.47,37.47,0,0,1-4.86.15c-.37,0-.65.42,0,.44,5.79.2,7.35-.12,12.21.3C369.13,59.92,372.9,60.13,373.2,59.21ZM82.9,85.67c.52.11-1.62.11,16.49.09a5.34,5.34,0,0,0,.85-.17,23.55,23.55,0,0,1-2.51-.25A19.16,19.16,0,0,0,93.47,85c-1,0-2,0-2.92,0C83.12,85.08,82.49,85.06,82.9,85.67ZM275,29.29c6.42.12,7-.1,10.41,0a77.16,77.16,0,0,0,7.79-.27c.17,0,.27-.18.5-.34-4.5-.3-8.9-.05-13.3,0A38.67,38.67,0,0,0,275,29.29Zm59.23,13.12c-.25.2,0,.5.37.52,4,.17,4.94.23,5.52-.13s-1.71-.7-2.34-.82c.55-.29,1.68-.08,1.94-.51-2.12-.82-4.67-.64-7.34-.25-.38.06-.42.21-.17.35C336,42,335.07,41.71,334.22,42.41Zm6.52,3.76c2.25.54,5.81-.28,5.81,1.34,1.33.09,1.35-.06,3.42-.93,2.4-.41,4.41-.08,6.3-.34.05,0,.05-.07.16-.23-3.32.05-6.56-.13-9.8-.06-1.65,0-3.21-.09-4.81-.21ZM167.35,83.79c5.62,1.34,6,.12,11.23.39.57,0,3.52,0,3.27-.18C181.41,83.66,183.12,83.74,167.35,83.79ZM78.2,29.17c1.74.6,2.14-.26,6.74,0a21.59,21.59,0,0,0,4.82-.09c.21,0,.28-.22.42-.34-.9-.16.83-.18-9.61-.12A3.61,3.61,0,0,0,78.2,29.17Zm183.33-7.46c.11.09.17.17.22.17a44,44,0,0,1,8.6.32c1.77.3,4.36.2,4.55-.16,0-.05,0-.15-.07-.17-.29-.08-4.33-.49-4.64-.46C267.93,21.62,263.9,21.27,261.53,21.71ZM78.09,50.54c5.19.2,9.22.16,13-.06,1-.31,1.92-.46,2.08-.93-2.46-.26-2.87.45-8.6.65C79.66,50.36,82.85,50,78.09,50.54Zm28.68-33.65c.84.54,3.26.27,5,.44,4.15-.47,9.22.18,10.72-.44C105.25,16.73,108,16.71,106.77,16.89ZM300,75.93c1.49.15-1.08.17,14.54.12.46,0,.92-.08,1.5-.13a3.7,3.7,0,0,0-.81-.22C310.22,75.63,305.21,75.49,300,75.93ZM245.8,14.51l1.78.51c2.2-.18,4.61.52,6.88-.19l-.15-.37A54.82,54.82,0,0,0,245.8,14.51Zm.31,1.59c0-.15,1-.18-9.18,0-.11,0-.2.21-.32.36C243.57,17,239.36,16.7,246.11,16.1ZM259.49,16c-7.85-.19-5.84-.21-9.65.13-.5,0,0,.42.22.44A39.75,39.75,0,0,0,259.49,16Zm89,41.94c-.21-.61-1.75-.6-8.13-.33.07.17.06.38.16.39a17.38,17.38,0,0,0,5.24-.11C346.72,57.81,347.57,58.3,348.51,58ZM159.26,83.73c-1.61-.13-3.21.1-4.83.11s-3.25-.06-4.86-.09c-1.07,1,1.64.21,3.41.58a2.81,2.81,0,0,0,1,0c2.64-.49,4.93.27,5.6-.24C159.63,84,159.39,83.87,159.26,83.73Zm210-13.29c-1.31-1.21-2.54-.21-9.52-.26-.11,0-.22.14-.42.28C364.53,70.53,362,70.55,369.29,70.44ZM319.77,41.49c.06,0,.11.14.19.14a56.41,56.41,0,0,0,10.32.35c-5.3-.61-3.2-.56-10.11-.6A1.6,1.6,0,0,0,319.77,41.49Zm-132-27.1a10,10,0,0,0,1.34.21,47.92,47.92,0,0,1,7.21.34A1.55,1.55,0,0,0,198,14.3c-2.58-.26-5.2,0-7.77-.17a15.29,15.29,0,0,0-1.9.09A1.9,1.9,0,0,0,187.79,14.39Zm79.83,5.94c-.9-.22,1-.22-11.06-.14a3.27,3.27,0,0,0-.71.21c1.9.22,10.36.09,10.85.08A7.65,7.65,0,0,0,267.62,20.33Zm-48.73-9.27c7.56.32,9,.32,11.46-.08C226.54,10.9,222.73,10.91,218.89,11.06ZM362.43,51.73c.54,1,5.11.42,7.25.08-.09-.05-.17-.15-.28-.16C368.23,51.57,363.21,51.36,362.43,51.73Zm-20.85,7.83c.86,0,1.6.59,2.55.09-.21-.22.06-.11-.89-.46-7.21-.09-7.21-.09-9.55.24A72.66,72.66,0,0,0,341.58,59.56Zm-26.92-32.8a3.31,3.31,0,0,0-.92-.46,9.11,9.11,0,0,0-4.21.1c.29.16.5.39.82.42A16.42,16.42,0,0,0,314.66,26.76Zm-241.3,5c-.66,0-.87.13-.58.54C79.36,32.27,80.87,32.29,73.36,31.73ZM144.91,17a3.21,3.21,0,0,0-.89-.44c-1.53-.24-3.85-.1-3.72.37S143.93,17.17,144.91,17ZM271.74,29.24c0-.11,0-.28-.13-.31a8.33,8.33,0,0,0-4-.13c.16.13.24.3.46.35A11.4,11.4,0,0,0,271.74,29.24Zm39.39,9c-2.3-.31-3.5-.31-8.58.1C306.06,38.27,308.6,38.69,311.13,38.2Zm38.19,24.95c1.62.14,4.41.11,4.63-.14.52-.59-.22-.64-.5-.53A17.89,17.89,0,0,1,349.32,63.15ZM150.13,24.68c0-.19.42-.18-3.46-.16-3.29,0-2.9,0-2.9.16Zm30-11.5H187A59.3,59.3,0,0,0,180.16,13.18ZM334.69,47.9c-1.28-.56-1.29-.55-3.95-.36A8.2,8.2,0,0,0,334.69,47.9ZM132.77,84.33a6.29,6.29,0,0,0-3.32-.34A5.89,5.89,0,0,0,132.77,84.33Zm16.59-67.8c.61-.05,1.19-.13,1.78-.16a5,5,0,0,0,2.28-.25,11,11,0,0,0-4,.22C149.31,16.35,149.36,16.43,149.36,16.53Zm86.49-2.11c.63.22,0,.32,4.43.28.33,0,.37-.17.09-.32A16.57,16.57,0,0,0,235.85,14.42ZM89.79,32.28H94.9c-1.45-.15-2.91-.19-4.37-.22A3.91,3.91,0,0,0,89.79,32.28Zm80.65-19.14a19,19,0,0,0-4.45,0A18.35,18.35,0,0,0,170.44,13.14Zm112.87,4.3c.17-.13.69-.09-3.71-.09C279.6,17.48,279.15,17.44,283.31,17.44ZM60.23,32.21a16.21,16.21,0,0,0,4.67,0A12.45,12.45,0,0,0,60.23,32.21ZM45.52,36c.77.25-.1.26,3.6.14a3.87,3.87,0,0,0,.46-.06L49.34,36A16.83,16.83,0,0,0,45.52,36Zm296.3,36.46a6.23,6.23,0,0,0,3.45-.11A14.62,14.62,0,0,0,341.82,72.48Zm6.48-13.14c2,.08,2,.09,2.51-.05A17.41,17.41,0,0,0,348.3,59.34ZM62.17,53.94c-.1,0-.37.37.24.41C64.4,54.47,64.41,53.48,62.17,53.94ZM317.71,33.88c.52.24-.08.29,2.87.21A1.26,1.26,0,0,0,321,34c-.17-.08-.33-.23-.52-.23A6.86,6.86,0,0,0,317.71,33.88ZM163.24,83.8c-2.44,0-1,.35-.4.3C164.71,84,164.45,84,163.24,83.8ZM286.59,17.38c1.43.15,2.85,0,.27,0ZM51.09,79.69a3.73,3.73,0,0,0-2.49,0A4,4,0,0,0,51.09,79.69Zm287-34a14.5,14.5,0,0,0-2.86.25A10.52,10.52,0,0,0,338.13,45.64Zm28.06,22.92c.24.15,0,.14,1.06.06C367,68.49,367.28,68.49,366.19,68.56Zm-71.66,7.31c.19.12-.08.11,1.08,0C295.42,75.78,295.69,75.79,294.53,75.87Zm24.24,0a3.52,3.52,0,0,0,1.37,0A1.93,1.93,0,0,0,318.77,75.86Zm11,0c-1.16-.1-.85-.1-1.14,0A1.92,1.92,0,0,0,329.8,75.84Zm-16.7,2.57-.74.06Zm15.81-1.26c-.38-.11-.12-.12-1,0A3,3,0,0,0,328.91,77.15ZM96.21,26.28c-1-.07-.77-.06-1,0Zm237.85,49.6Zm-70.17,5.9-.84,0ZM101.35,33.53ZM269.57,81.78c1,.13.64.12,1.22,0C270.33,81.68,270.67,81.65,269.57,81.78Zm12.86,0h.88C283.21,81.69,283.4,81.69,282.43,81.79ZM109.67,21.14c-.66,0-.46,0-.67.14a2.34,2.34,0,0,0,.4.11c.39,0,.65,0,.65-.16S109.8,21.17,109.67,21.14ZM366,67.31c-.63,0-.44,0-.67.13,1.09.09.8.1,1.06,0Zm-5.55.15a4.2,4.2,0,0,0,.77.08c.45,0,.48-.16.06-.23a4.41,4.41,0,0,0-.8,0S360.4,67.45,360.42,67.46Zm-107-36.89c-.06.06-.19.15-.14.18a.86.86,0,0,0,.8,0,.64.64,0,0,0,.21-.18ZM144.88,83.93c.07,0,.12.11.22.13.39.06.81-.19.1-.21A1.36,1.36,0,0,0,144.88,83.93Zm130.65-2.1c.39,0,.48,0,.24-.1a1.45,1.45,0,0,0-.35,0ZM45.72,79.7c.43,0,.54-.07.27-.17a2.21,2.21,0,0,0-.38,0ZM337.8,75.92l.37-.09c-.08,0-.15-.12-.24-.12-.39,0-.6,0-.52.15A2,2,0,0,0,337.8,75.92Zm-14.17-.1c.44.09.33.1.41,0Zm32.63-8.47c.43.1.32.11.41,0Zm9.21-6.69c-.42-.1-.32-.11-.41,0ZM33,57.14c.1.12,0,.11.42.07C33.28,57.09,33.4,57.1,33,57.14Zm266.55-19c-.26-.11-.07-.13-.7,0A1.19,1.19,0,0,0,299.51,38.17ZM59.63,33.42c0,.12-.12.1.34.06ZM75.77,29c0,.16.11.2.33.1,0,0,0-.09-.06-.14ZM52.52,27.59c.48.11.37.12.45-.05Zm265.08-1c-.19-.23-.1-.23-.32,0Zm-36.7-4.47c-.47-.09-.36-.09-.43,0Zm-5.37-4.73c0,.08-.09.06.32.05Zm47.89,42.06c.2-.13.24-.1-.1-.12ZM60.29,54.14c-.2.12-.22.09.09.11Zm-2.15-2.81c.23-.12.26-.09-.08-.12Z"/><path class="cls-2" d="M123.56,5.49c-1.23-.15-8.09-.18-3-.65,3.39-.31,3.57-.23,3.31-1-9.83-1.37,10.14-1.68,19.91-1.59,4.49,0,3.9,0,3.43-.56,1.67-.07,1.06-.29,3.5,1.07.81.45-2.26.59-8.17,1,1.13.24,7.13,0,10,1.38l-4.16.29c.12.17.13.34.31.39,1.33.36,2.43.15,3.15.58-.58.31-.15.53-3.72.65-12.73.42-18.82-.57-27.41-.16-9.44.45-22.17.09-19.28-.25,10-1.18,11.15-.09,13.44-.43C117,5.91,119.31,6.58,123.56,5.49Zm9.12,0a1.57,1.57,0,0,0,1.31,0Zm-3.9,0,.81,0ZM139.7,3.75c-.57,0-.6.07-.07.15a1.75,1.75,0,0,0,.44,0Z"/><path class="cls-2" d="M69.45,13c-9,.29-7,0-8.28-1a1.69,1.69,0,0,1,.57-.28c1.1-.14,2.2-.28,3.33-.36,6.43-.44,4.51-.86,7.43-1,9.81-.44,11.87-.12,15,.12.16.27.27.47.42.74,7.68.12,7.31,0,4.8,1l1.24.68c-1.27.59-.1.37-3.39.53-4.32.22-3,1-12.38.72-.23-.62.83-.79,1.53-1.1,2.75-.31,5.8-.13,8.72-.71-2.73-.64-5.61,0-8.13-.47-.09-.66.53-.57-6.66-.5A15.15,15.15,0,0,1,69.45,13Z"/><path class="cls-2" d="M266.78,8.28c3.33-1.09,9-1,38-.94,2.12,0,4.25,0,6.37.11,0,.13,0,.23-.09.24a18.23,18.23,0,0,1-4.43.79c-5.51-.25-4.28.19-7.34,0a15,15,0,0,0-2.92.08c-2.05.24-4.24.18-6.23.57-.63.12-9.05.22-12.77,0a80.73,80.73,0,0,0-9.18.19C266.5,8.12,266.57,8.19,266.78,8.28Z"/><path class="cls-2" d="M124.4,10.14a16.64,16.64,0,0,1,1.88-.13c5.09.13,10.16-.07,15.25-.06,7.08,0,6.82,0,7.3-.09,2.17-.55,3.24-.4,8.12-.4a7.06,7.06,0,0,1,2.57-.55c15.26.66,13.5.59,15.56.82.23,0,.16.35-.15.35-1.94,0-3.87.16-5.83,0-.79-.06-1.63,0-2.64,0-4.15-.61-3.81-.67-7.24.25C128.73,10.39,124.26,11.44,124.4,10.14Z"/><path class="cls-2" d="M230.07,1.42l-.64-.55a5.25,5.25,0,0,0-.87-.14c-17.93,0-15.55-.15-27.42.52a26.8,26.8,0,0,1-2.89-.19c-2.94-.11-2.23.32-3-.68,2-.21.37-.21,7.37-.21,14.84,0,37.37-.48,36.58.18s-3.41,0-6.13.82A19.36,19.36,0,0,1,230.07,1.42Z"/><path class="cls-2" d="M34.27,51.21c-.08.11-.08.24-.24.32-1.51.85,1.81,1,4.21,1.25.1,0,.14.12.22.2-1.68.62-8.47.18-10.76.08a7.45,7.45,0,0,1-2.87-.73c-.52-.45.78-.75.16-1.17,4.26-1.14,3.53-1.1,6.46-.85C32.2,51,31.61,50.84,34.27,51.21Z"/><path class="cls-2" d="M344.94,37.19l-.42-1.11c3.63-.6,6.39.14,9.24.91l.41.77c.58.31,1.78.4,1.77.92a5.4,5.4,0,0,1-2.33.11C350.06,38.2,347.33,38,344.94,37.19Zm1.8-.28c-.14-.12,0-.11-.53-.07C346.36,37,346.25,37,346.74,36.91Z"/><path class="cls-2" d="M261.27,10.68c1.06-.32-.17-.18,22.24-.25,5.26,0,2.69-.18,15.58-.38.32.18.31.32,0,.37C298.29,10.55,267.49,11,261.27,10.68Z"/><path class="cls-2" d="M356.29,39.77c4.48,1.15,3.21.75,4.32,1.45-2.63.16-5.06.13-7.62.12-5.37-1.05-4.18-.57-5.7-1.37,1-.43,2.85.05,3.8-.14A20.16,20.16,0,0,1,356.29,39.77Z"/><path class="cls-2" d="M386,50.63c-.93.94-1,.52.36,1.9l-1.62.88a11.45,11.45,0,0,1-4.38-.23c-.3-.54-.64-1.13-.94-1.68.15-.38.69-.54,1.35-.58C386.37,50.6,386.33,50.74,386,50.63Z"/><path class="cls-2" d="M106.29,5.52c-1.8.39-3.56,0-5.05.4a23.14,23.14,0,0,1-4.35.19c-1.63.07-3.27.07-4.76.09a43.62,43.62,0,0,1-11,1c.07-.12,0-.26.21-.33C84,5.87,103.69,5.08,106.29,5.52Z"/><path class="cls-2" d="M348.46,34.16c.84-1.26,2-1.86,6.52-.26.3.35.21.68-.17,1.06a6.79,6.79,0,0,1-1.25.21c-2.28-.07-4.59-.07-6.82-.35.08-.44-.45-.26,1.82-.71.42.27.92.45,1.22.15A11.49,11.49,0,0,0,348.46,34.16Z"/><path class="cls-2" d="M284.84,13.51c6.79-.2,12.49-.2,18.15,0,.66.3-.13.61-.57.58-2.23-.19-10.56.12-11.71.05C289.11,14.06,287.55,13.82,284.84,13.51Z"/><path class="cls-2" d="M402.94,58.93c-4.54.72-2.35.67-9.92.07,0-.08,0-.18.11-.2C397.89,57.77,399.42,57.24,402.94,58.93Z"/><path class="cls-2" d="M231.05,3c-6.9.31-13.72,0-20.54.12C213.49,2.75,224.85,2.68,231.05,3Z"/><path class="cls-2" d="M9.72,30.9c-1.09-.38-1.19.09-2-2.64,0-.18.27-.39.55-.55C9.32,27.14,12.49,29.18,9.72,30.9Z"/><path class="cls-2" d="M328.38,84.93c.82-.3-.81-.24,7.95-.24.08.35-.61.44-1,.46C333.8,85.23,329.47,85.41,328.38,84.93Z"/><path class="cls-2" d="M126.23,11.45c4.61-.24,9.81-.32,13-.2.45,0,.89.12,1.72.25-3.2.32.24.31-14,.17A3.51,3.51,0,0,1,126.23,11.45Z"/><path class="cls-2" d="M386.12,50.67c-.74-.73-.6-.52-.42-.76,3.6-.6,3.47.46,8.08.31a9.09,9.09,0,0,1,1.38.17c-1,.46-2.94.09-4.75.13a32.25,32.25,0,0,1-4.4.11Z"/><path class="cls-2" d="M52.23,16.18c2.08-.77,2.94-1.3,4.67-1l1.36,1.11a4.37,4.37,0,0,1-1.1.31A46.81,46.81,0,0,0,52.23,16.18Z"/><path class="cls-2" d="M106.14,11.48c-.65.24.42.29-6.54.31a1.41,1.41,0,0,1-.67-.26c-.23-.14.18-.45.62-.5C102.23,10.73,102.22,10.86,106.14,11.48Z"/><path class="cls-2" d="M108.47,13.26c-1.87.18-.78.24-7.09.06a2.16,2.16,0,0,1-.68-.21c-.21-.09.41-.39.89-.42C104.34,12.51,104.21,12.6,108.47,13.26Z"/><path class="cls-2" d="M116.22,9.37c0-.21.06-.46.59-.5,1.63-.14,5.11-.22,5.18.44C122,9.74,117.66,9.7,116.22,9.37Z"/><path class="cls-2" d="M371.24,40.75c.76-.31,2-.35,2.46-.84.21-.23,1.11-.18,1.7.05,1.18.46-1.26.47-1.14,1.1A4.64,4.64,0,0,1,371.24,40.75Z"/><path class="cls-2" d="M43.83,33.74c1-.05,5.67-.38,5.94,0,0,0,0,.18-.1.18-1.94.12-3.88.27-5.84.33C43.34,34.29,43.32,34,43.83,33.74Z"/><path class="cls-2" d="M31.13,54.94a5.27,5.27,0,0,1-2-.67c.16-.09.32-.27.49-.27,3.88,0,3.59.07,4.06.3.24.11-.16.36-.78.44S31.62,54.88,31.13,54.94Z"/><path class="cls-2" d="M133.45,88.5a7.63,7.63,0,0,1,3.39-.17c1,.31-.83.89-2.34.7C134.15,89,133.93,88.76,133.45,88.5Z"/><path class="cls-2" d="M11.51,58l2.12-.27c.3.34.3.34-1.48,1.28C10.49,58.81,10.65,58.56,11.51,58Z"/><path class="cls-2" d="M82.39,87.91c-3.7.25-2.62.24-3.82-.14,1-1,3.3-.67,3.73.18Z"/><path class="cls-2" d="M223.77,1.27a26.8,26.8,0,0,1-5.4.12C219.94,1,219.94,1,223.77,1.27Z"/><path class="cls-2" d="M396.84,46.24c-1.79.47-3.41.06-5.06,0A13.88,13.88,0,0,1,396.84,46.24Z"/><path class="cls-2" d="M48.63,48H44.12C45.19,47.71,45.19,47.71,48.63,48Z"/><path class="cls-2" d="M287.64,6.78a9.27,9.27,0,0,1-4.82,0A10.46,10.46,0,0,1,287.64,6.78Z"/><path class="cls-2" d="M338.49,82.61a2.63,2.63,0,0,1-1.85,0A5,5,0,0,1,338.49,82.61Z"/><path class="cls-2" d="M398.05,73.62c.5-.19.65-.64,3.61-.23C397.39,73.6,397.91,73.55,398.05,73.62Z"/><path class="cls-2" d="M384.71,58.93c.5-.51.6-.51,2.29,0A11.38,11.38,0,0,1,384.71,58.93Z"/><path class="cls-2" d="M377.18,57.32c-2.42-.22-.81-.87.23-.54.21.07.42.22.39.32S377.4,57.25,377.18,57.32Z"/><path class="cls-2" d="M392.87,55.07a5.86,5.86,0,0,1,3.35,0,.78.78,0,0,1-.41.25A6.5,6.5,0,0,1,392.87,55.07Z"/><path class="cls-2" d="M68.53,13.49c.66.17-1.61.76-2.22.18C66,13.37,67.67,13.26,68.53,13.49Z"/><path class="cls-2" d="M195.78,3.38a10.12,10.12,0,0,1,2.75.05A12,12,0,0,1,195.78,3.38Z"/><path class="cls-2" d="M23.84,73.18c.65.1,1.1.11.88.33s-.62.23-1.2.09a1.65,1.65,0,0,1-.54-.3Z"/><path class="cls-2" d="M385.15,63.39a1.85,1.85,0,0,1,2-.45c.17.07.16.22.28.4C384.66,63.34,385,63.32,385.15,63.39Z"/><path class="cls-2" d="M337.49,29.27a4.26,4.26,0,0,1,2.37-.06,1.22,1.22,0,0,1-.44.22A4.1,4.1,0,0,1,337.49,29.27Z"/><path class="cls-2" d="M407.23,55.46c-1.22.42-2-.14-1.88-.26C405.75,54.77,406.61,55.23,407.23,55.46Z"/><path class="cls-2" d="M34.65,22.62a4.33,4.33,0,0,1,2.57-.2A9.08,9.08,0,0,1,34.65,22.62Z"/><path class="cls-2" d="M296.26,20.22l2.64.07A5.3,5.3,0,0,1,296.26,20.22Z"/><path class="cls-2" d="M23,19.07c.64-.48,2.11-.54,2-.13S23.32,19.51,23,19.07Z"/><path class="cls-2" d="M72.34,8.54c-2.88.11-2.09.14-3-.11C70.4,8.26,69.6,8.22,72.34,8.54Z"/><path class="cls-2" d="M170.26,6.69c2,.06,1.72,0,1.72.14C170.05,6.88,170.37,6.93,170.26,6.69Z"/><path class="cls-2" d="M341.69,84.87h-2.41A3.85,3.85,0,0,1,341.69,84.87Z"/><path class="cls-2" d="M369.83,37a4.12,4.12,0,0,1-2.23,0C367.44,36.27,370,36.37,369.83,37Z"/><path class="cls-2" d="M398,73.57c-.53.09-1.47.32-1.53,0S398.26,73.74,398,73.57Z"/><path class="cls-2" d="M45.14,17c-.72.36-1.91.05-1.66-.07C44.2,16.57,45.38,16.87,45.14,17Z"/><path class="cls-2" d="M63.49,14.48c0-.05,0-.13,0-.13,1.1-.1.9,0,1.17.09C64.27,14.56,64.61,14.57,63.49,14.48Z"/><path class="cls-2" d="M114.24,13.58a3.38,3.38,0,0,1-1.31,0c-.15-.09,0-.17.47-.16A5.89,5.89,0,0,1,114.24,13.58Z"/><path class="cls-2" d="M31,48.71c.15.11-.06.17-.52.13a1.74,1.74,0,0,1-.39-.11A3,3,0,0,1,31,48.71Z"/><path class="cls-2" d="M103.09,10l-2.16,0C102.73,9.37,102.76,10.1,103.09,10Z"/><path class="cls-2" d="M241.55,3.52s0-.15.08-.15a3.72,3.72,0,0,1,.85,0c.29.1.19.27-.18.3A2.44,2.44,0,0,1,241.55,3.52Z"/><path class="cls-2" d="M151.18,1.73c1.09-.14.75-.11,1.21,0C151.83,1.87,152.15,1.88,151.18,1.73Z"/><path class="cls-2" d="M140.68,1c-1.45,0-1.26,0-1.24-.13C140.89.87,140.7.84,140.68,1Z"/><path class="cls-2" d="M31.14,22.63l-.59-.18c.2-.09.38-.19.6-.27.46-.15,1,0,.4.41A1.44,1.44,0,0,1,31.14,22.63Z"/><path class="cls-2" d="M405.65,54.36s0-.13,0-.15a2.49,2.49,0,0,1,1.33-.06C408,54.36,406.59,54.64,405.65,54.36Z"/><path class="cls-2" d="M85.26,17.17c-.3.58-1.62.31-2.33.24A12.37,12.37,0,0,1,85.26,17.17Z"/><path class="cls-2" d="M19.88,73.29c.57-.05.4-.05.56.08C19.87,73.42,20,73.43,19.88,73.29Z"/><path class="cls-2" d="M396.13,71.22c-.54,0-.45,0-.37-.08Z"/><path class="cls-2" d="M414.45,68.57c.58,0,.42-.06.56.1C414.43,68.72,414.59,68.74,414.45,68.57Z"/><path class="cls-2" d="M408.31,66.86a2,2,0,0,1,.39-.06c.77.08.18.31-.29.19C408.34,67,408.34,66.9,408.31,66.86Z"/><path class="cls-2" d="M23.62,67c-1.14.16-.76-.3-.1-.13C23.59,66.87,23.59,66.94,23.62,67Z"/><path class="cls-2" d="M48.75,53.42c0-.18-.1-.15.4-.07Z"/><path class="cls-2" d="M27,39.42c.42,0,.35,0,.28.07Z"/><path class="cls-2" d="M376.32,36c-.05,0-.1.12-.15.12a1.34,1.34,0,0,1-.42,0C375.72,35.88,375.93,35.85,376.32,36Z"/><path class="cls-2" d="M291.37,12c-.5-.1-.53-.06,0-.12Z"/><path class="cls-2" d="M242.69,7.65c-1.07.15-.75.14-1.14,0C242.63,7.48,242.31,7.49,242.69,7.65Z"/><path class="cls-2" d="M271.67,6.74c.42.08.44.06,0,.09Z"/><path class="cls-2" d="M82.3,88l.68.13C82.14,88.4,82.6,87.82,82.3,88Z"/><path class="cls-2" d="M298.6,84.3c.36,0,.3-.06.24.07Z"/><path class="cls-2" d="M385,63.34c-.27.2-.3.18.11,0Z"/><path class="cls-2" d="M49.32,49.1c.13.13.17.1-.15.08Z"/><path class="cls-2" d="M48,43c-.49-.07-.45-.08-.11,0Z"/><path class="cls-2" d="M85.72,17c-.09.13,0,.1-.46.16C85.39,17.23,85.29,17.25,85.72,17Z"/><path class="cls-2" d="M103,10l.46.13C102.84,10.07,103.29,9.87,103,10Z"/><path class="cls-2" d="M266.67,8.24c-.2.19-.23.17.11,0Z"/><path class="cls-2" d="M213.1,15.7a2.61,2.61,0,0,1,1.7,0A2.67,2.67,0,0,1,213.1,15.7Z"/><path class="cls-2" d="M224.36,13.11a2.48,2.48,0,0,1,.94,0C224.47,13.23,224.72,13.21,224.36,13.11Z"/><g class="cls-3"><path class="cls-4" d="M65.82,37.46a10.06,10.06,0,0,1,7.33,3,9.86,9.86,0,0,1,3.06,7.27V61.49H69.27V47.75a3.28,3.28,0,0,0-1-2.42,3.31,3.31,0,0,0-2.44-1H64.07a3.31,3.31,0,0,0-2.44,1,3.28,3.28,0,0,0-1,2.42V89a3.29,3.29,0,0,0,1,2.42,3.34,3.34,0,0,0,2.44,1h1.75a3.34,3.34,0,0,0,2.44-1,3.29,3.29,0,0,0,1-2.42V75.2h6.94V89a9.86,9.86,0,0,1-3.06,7.26,10,10,0,0,1-7.33,3H64.07a10,10,0,0,1-7.33-3A9.86,9.86,0,0,1,53.68,89V47.75a9.86,9.86,0,0,1,3.06-7.27,10.06,10.06,0,0,1,7.33-3Z"/><path class="cls-4" d="M92.72,37.46a10.06,10.06,0,0,1,7.33,3,9.86,9.86,0,0,1,3.06,7.27V89a9.86,9.86,0,0,1-3.06,7.26,10,10,0,0,1-7.33,3H91a10.07,10.07,0,0,1-7.34-3,9.88,9.88,0,0,1-3-7.26V47.75a9.89,9.89,0,0,1,3-7.27,10.1,10.1,0,0,1,7.34-3Zm3.45,10.29a3.28,3.28,0,0,0-1-2.42,3.31,3.31,0,0,0-2.44-1H91a3.43,3.43,0,0,0-3.45,3.42V89a3.29,3.29,0,0,0,1,2.42,3.33,3.33,0,0,0,2.44,1h1.75a3.34,3.34,0,0,0,2.44-1,3.29,3.29,0,0,0,1-2.42Z"/><path class="cls-4" d="M142.15,37.46V99.24h-7V58.51l-6.76,23.56h-7.25l-6.77-23.56V99.24h-6.94V37.46h8.07l9.26,32.12,9.26-32.12Z"/><path class="cls-4" d="M146.51,37.46h7V99.24h-7Z"/><path class="cls-4" d="M180.35,37.46V99.24h-6.94V80.91l-8.65-25.73V99.24h-6.94V37.46h8.3l7.29,21.74V37.46Z"/><path class="cls-4" d="M195.11,44.33a3.31,3.31,0,0,0-2.44,1,3.28,3.28,0,0,0-1,2.42V89a3.29,3.29,0,0,0,1,2.42,3.34,3.34,0,0,0,2.44,1h1.75a3.34,3.34,0,0,0,2.44-1,3.29,3.29,0,0,0,1-2.42V75.2h-3.45V68.33h10.39V89a9.86,9.86,0,0,1-3.06,7.26,10,10,0,0,1-7.33,3h-1.75a10,10,0,0,1-7.33-3A9.86,9.86,0,0,1,184.72,89V47.75a9.86,9.86,0,0,1,3.06-7.27,10.06,10.06,0,0,1,7.33-3h1.75a10.06,10.06,0,0,1,7.33,3,9.86,9.86,0,0,1,3.06,7.27h-6.94a3.28,3.28,0,0,0-1-2.42,3.31,3.31,0,0,0-2.44-1Z"/><path class="cls-4" d="M237,37.46a10.07,10.07,0,0,1,7.33,3,9.86,9.86,0,0,1,3.06,7.27v5.14h-6.94V47.75a3.28,3.28,0,0,0-1-2.42,3.31,3.31,0,0,0-2.44-1h-1.75a3.33,3.33,0,0,0-2.45,1,3.27,3.27,0,0,0-1,2.42V64.91a3.27,3.27,0,0,0,1,2.42,3.37,3.37,0,0,0,2.45,1H237a10,10,0,0,1,7.33,3,9.9,9.9,0,0,1,3.06,7.31V89a9.86,9.86,0,0,1-3.06,7.26,10,10,0,0,1-7.33,3H224.86V92.36H237a3.34,3.34,0,0,0,2.44-1,3.29,3.29,0,0,0,1-2.42V78.66A3.5,3.5,0,0,0,237,75.2h-1.75a10.07,10.07,0,0,1-7.34-3,9.79,9.79,0,0,1-3-7.26V47.75a9.89,9.89,0,0,1,3-7.27,10.1,10.1,0,0,1,7.34-3Z"/><path class="cls-4" d="M263.89,37.46a10.08,10.08,0,0,1,7.34,3,9.86,9.86,0,0,1,3.06,7.27V89a9.86,9.86,0,0,1-3.06,7.26,10.05,10.05,0,0,1-7.34,3h-1.74a10.05,10.05,0,0,1-7.34-3A9.86,9.86,0,0,1,251.75,89V47.75a9.86,9.86,0,0,1,3.06-7.27,10.08,10.08,0,0,1,7.34-3Zm3.45,10.29a3.27,3.27,0,0,0-1-2.42,3.33,3.33,0,0,0-2.45-1h-1.74a3.33,3.33,0,0,0-2.45,1,3.27,3.27,0,0,0-1,2.42V89a3.28,3.28,0,0,0,1,2.42,3.37,3.37,0,0,0,2.45,1h1.74a3.37,3.37,0,0,0,2.45-1,3.28,3.28,0,0,0,1-2.42Z"/><path class="cls-4" d="M290.79,37.46a10.1,10.1,0,0,1,7.34,3,9.89,9.89,0,0,1,3.05,7.27V89a9.88,9.88,0,0,1-3.05,7.26,10.07,10.07,0,0,1-7.34,3h-1.74a10.05,10.05,0,0,1-7.34-3A9.86,9.86,0,0,1,278.65,89V47.75a9.86,9.86,0,0,1,3.06-7.27,10.08,10.08,0,0,1,7.34-3Zm3.45,10.29a3.27,3.27,0,0,0-1-2.42,3.33,3.33,0,0,0-2.45-1h-1.74a3.32,3.32,0,0,0-2.45,1,3.27,3.27,0,0,0-1,2.42V89a3.28,3.28,0,0,0,1,2.42,3.35,3.35,0,0,0,2.45,1h1.74a3.37,3.37,0,0,0,2.45-1,3.28,3.28,0,0,0,1-2.42Z"/><path class="cls-4" d="M328.08,37.46V99.24h-6.94V80.91l-8.65-25.73V99.24h-6.94V37.46h8.3l7.29,21.74V37.46Z"/></g><path class="cls-5" d="M67,35.4a10.05,10.05,0,0,1,7.34,3,9.86,9.86,0,0,1,3.06,7.26V59.44h-7V45.69a3.27,3.27,0,0,0-1-2.42,3.37,3.37,0,0,0-2.45-1H65.28a3.37,3.37,0,0,0-2.45,1,3.27,3.27,0,0,0-1,2.42v41.2a3.27,3.27,0,0,0,1,2.42,3.33,3.33,0,0,0,2.45,1H67a3.33,3.33,0,0,0,2.45-1,3.27,3.27,0,0,0,1-2.42V73.14h7V86.89a9.82,9.82,0,0,1-3.06,7.26,10.05,10.05,0,0,1-7.34,3H65.28a10.05,10.05,0,0,1-7.34-3,9.82,9.82,0,0,1-3.06-7.26V45.69a9.86,9.86,0,0,1,3.06-7.26,10.05,10.05,0,0,1,7.34-3Z"/><path class="cls-5" d="M93.92,35.4a10.07,10.07,0,0,1,7.34,3,9.85,9.85,0,0,1,3,7.26v41.2a9.81,9.81,0,0,1-3,7.26,10.07,10.07,0,0,1-7.34,3H92.18a10.05,10.05,0,0,1-7.34-3,9.82,9.82,0,0,1-3.06-7.26V45.69a9.86,9.86,0,0,1,3.06-7.26,10.05,10.05,0,0,1,7.34-3Zm3.45,10.29a3.27,3.27,0,0,0-1-2.42,3.37,3.37,0,0,0-2.45-1H92.18a3.35,3.35,0,0,0-2.45,1,3.27,3.27,0,0,0-1,2.42v41.2a3.27,3.27,0,0,0,1,2.42,3.32,3.32,0,0,0,2.45,1h1.74a3.33,3.33,0,0,0,2.45-1,3.27,3.27,0,0,0,1-2.42Z"/><path class="cls-5" d="M143.35,35.4V97.18h-6.94V56.46L129.64,80h-7.25l-6.77-23.56V97.18h-6.94V35.4h8.08L126,67.52l9.25-32.12Z"/><path class="cls-5" d="M147.72,35.4h6.94V97.18h-6.94Z"/><path class="cls-5" d="M181.56,35.4V97.18h-6.94V78.85L166,53.13V97.18H159V35.4h8.29l7.3,21.75V35.4Z"/><path class="cls-5" d="M196.32,42.28a3.37,3.37,0,0,0-2.45,1,3.27,3.27,0,0,0-1,2.42v41.2a3.27,3.27,0,0,0,1,2.42,3.33,3.33,0,0,0,2.45,1h1.74a3.33,3.33,0,0,0,2.45-1,3.27,3.27,0,0,0,1-2.42V73.14h-3.45V66.27h10.4V86.89a9.82,9.82,0,0,1-3.06,7.26,10.05,10.05,0,0,1-7.34,3h-1.74a10.05,10.05,0,0,1-7.34-3,9.82,9.82,0,0,1-3.06-7.26V45.69A9.86,9.86,0,0,1,189,38.43a10.05,10.05,0,0,1,7.34-3h1.74a10.05,10.05,0,0,1,7.34,3,9.86,9.86,0,0,1,3.06,7.26h-7a3.27,3.27,0,0,0-1-2.42,3.37,3.37,0,0,0-2.45-1Z"/><path class="cls-5" d="M238.2,35.4a10.07,10.07,0,0,1,7.34,3,9.88,9.88,0,0,1,3.05,7.26v5.15h-6.94V45.69a3.31,3.31,0,0,0-1-2.42,3.37,3.37,0,0,0-2.45-1h-1.75a3.34,3.34,0,0,0-2.44,1,3.28,3.28,0,0,0-1,2.42V62.86a3.29,3.29,0,0,0,1,2.42,3.34,3.34,0,0,0,2.44,1h1.75a10.07,10.07,0,0,1,7.34,3,9.91,9.91,0,0,1,3.05,7.3V86.89a9.85,9.85,0,0,1-3.05,7.26,10.07,10.07,0,0,1-7.34,3H226.06V90.31H238.2a3.41,3.41,0,0,0,3.45-3.42V76.6a3.48,3.48,0,0,0-3.45-3.46h-1.75a10,10,0,0,1-7.33-3,9.76,9.76,0,0,1-3.06-7.26V45.69a9.86,9.86,0,0,1,3.06-7.26,10,10,0,0,1,7.33-3Z"/><path class="cls-5" d="M265.1,35.4a10,10,0,0,1,7.33,3,9.86,9.86,0,0,1,3.06,7.26v41.2a9.82,9.82,0,0,1-3.06,7.26,10,10,0,0,1-7.33,3h-1.75a10,10,0,0,1-7.33-3A9.82,9.82,0,0,1,253,86.89V45.69A9.86,9.86,0,0,1,256,38.43a10,10,0,0,1,7.33-3Zm3.45,10.29a3.28,3.28,0,0,0-1-2.42,3.34,3.34,0,0,0-2.44-1h-1.75a3.34,3.34,0,0,0-2.44,1,3.28,3.28,0,0,0-1,2.42v41.2a3.28,3.28,0,0,0,1,2.42,3.31,3.31,0,0,0,2.44,1h1.75a3.31,3.31,0,0,0,2.44-1,3.28,3.28,0,0,0,1-2.42Z"/><path class="cls-5" d="M292,35.4a10,10,0,0,1,7.33,3,9.86,9.86,0,0,1,3.06,7.26v41.2a9.82,9.82,0,0,1-3.06,7.26,10,10,0,0,1-7.33,3h-1.75a10.07,10.07,0,0,1-7.34-3,9.85,9.85,0,0,1-3.05-7.26V45.69a9.88,9.88,0,0,1,3.05-7.26,10.07,10.07,0,0,1,7.34-3Zm3.45,10.29a3.28,3.28,0,0,0-1-2.42,3.34,3.34,0,0,0-2.44-1h-1.75a3.37,3.37,0,0,0-2.45,1,3.27,3.27,0,0,0-1,2.42v41.2a3.27,3.27,0,0,0,1,2.42,3.33,3.33,0,0,0,2.45,1H292a3.31,3.31,0,0,0,2.44-1,3.28,3.28,0,0,0,1-2.42Z"/><path class="cls-5" d="M329.29,35.4V97.18h-7V78.85L313.7,53.13V97.18h-6.95V35.4h8.3l7.29,21.75V35.4Z"/></g></g></g></svg>