<svg height="511pt" viewBox="0 -14 511.99997 511" width="511pt" xmlns="http://www.w3.org/2000/svg"><path d="m56.195312 32.527344h-.199218c-4.175782 0-7.558594 3.382812-7.558594 7.558594 0 4.171874 3.382812 7.554687 7.558594 7.554687h.199218c4.175782 0 7.558594-3.382813 7.558594-7.554687 0-4.175782-3.382812-7.558594-7.558594-7.558594zm0 0"/><path d="m90.261719 32.527344h-.199219c-4.171875 0-7.554688 3.382812-7.554688 7.558594 0 4.171874 3.382813 7.554687 7.554688 7.554687h.199219c4.175781 0 7.558593-3.382813 7.558593-7.554687 0-4.175782-3.382812-7.558594-7.558593-7.558594zm0 0"/><path d="m124.300781 32.699219h-.199219c-4.171874 0-7.558593 3.382812-7.558593 7.558593 0 4.171876 3.386719 7.554688 7.558593 7.554688h.199219c4.175781 0 7.558594-3.382812 7.558594-7.554688 0-4.175781-3.382813-7.558593-7.558594-7.558593zm0 0"/><path d="m187.140625 49.757812h132.601563c4.175781 0 7.558593-3.382812 7.558593-7.558593 0-4.171875-3.382812-7.554688-7.558593-7.554688h-132.601563c-4.175781 0-7.558594 3.382813-7.558594 7.554688 0 4.175781 3.382813 7.558593 7.558594 7.558593zm0 0"/><path d="m95.125 262.453125h110.964844c4.179687 0 7.558594-3.386719 7.558594-7.554687 0-4.179688-3.378907-7.5625-7.558594-7.5625h-110.964844c-5.027344 0-9.125-4.097657-9.125-9.125v-7.890626l74.949219-32.992187c17.617187-7.746094 20.957031-5.527344 37.042969 5.109375 1.859374 1.230469 3.847656 2.550781 5.996093 3.941406 1.421875.917969 2.742188 1.777344 3.992188 2.585938 20.722656 13.507812 24.773437 14.539062 48.738281 2.769531l30.429688-14.9375c16.796874-8.277344 21.046874-5.738281 36.832031 3.691406 3.117187 1.867188 6.65625 3.988281 10.695312 6.226563l21.964844 12.207031v19.285156c0 5.03125-4.097656 9.128907-9.125 9.128907h-105.585937c-4.167969 0-7.558594 3.378906-7.558594 7.558593 0 4.167969 3.390625 7.558594 7.558594 7.558594h105.585937c13.367187 0 24.242187-10.878906 24.242187-24.242187v-92.46875c0-13.367188-10.875-24.246094-24.242187-24.246094h-252.390625c-13.363281 0-24.242188 10.878906-24.242188 24.246094v92.46875c0 13.367187 10.878907 24.242187 24.242188 24.242187zm-9.125-116.710937c0-5.039063 4.097656-9.128907 9.125-9.128907h252.390625c4.949219 0 9.128906 4.179688 9.128906 9.128907v55.898437l-14.617187-8.128906c-3.832032-2.128907-7.269532-4.179688-10.296875-5.988281-16.898438-10.097657-27.09375-16.1875-51.25-4.289063l-30.433594 14.9375c-9.6875 4.757813-14.566406 6.855469-17.832031 6.605469-3.351563-.238282-7.839844-3.160156-15.988282-8.46875-1.257812-.828125-2.597656-1.699219-4.027343-2.617188-2.109375-1.371094-4.050781-2.660156-5.871094-3.859375-18.242187-12.066406-27.320313-16.957031-51.464844-6.328125l-68.863281 30.300782zm0 0"/><path d="m487.070312 83.277344c-11.996093-4.726563-24.953124-3.15625-35.179687 3.121094v-59.425782c0-14.59375-11.878906-26.472656-26.484375-26.472656h-398.921875c-14.605469 0-26.484375 11.878906-26.484375 26.472656v429.054688c0 14.59375 11.878906 26.472656 26.484375 26.472656h398.921875c14.605469 0 26.484375-11.878906 26.484375-26.472656v-176.957032l52.917969-133.476562c.015625-.03125.035156-.058594.046875-.089844l4.386719-11.039062c7.980468-20.214844-1.957032-43.179688-22.171876-51.1875zm-35.179687 23.875c6.066406-9.816406 18.515625-14.195313 29.621094-9.816406 12.46875 4.9375 18.59375 19.105468 13.675781 31.5625l-1.59375 4.007812-41.703125-16.515625-3.519531-1.390625h-.003906l1.582031-3.996094c.539062-1.359375 1.191406-2.652344 1.941406-3.851562zm-15.117187 348.875c0 6.257812-5.101563 11.359375-11.367188 11.359375h-398.921875c-6.269531 0-11.367187-5.101563-11.367187-11.359375v-372.097656h112.902343c4.175781 0 7.554688-3.390626 7.554688-7.558594 0-4.167969-3.378907-7.558594-7.554688-7.558594h-112.902343v-41.839844c0-6.257812 5.097656-11.359375 11.367187-11.359375h398.921875c6.265625 0 11.367188 5.101563 11.367188 11.359375v41.839844h-272.902344c-4.179688 0-7.558594 3.390625-7.558594 7.558594 0 4.167968 3.378906 7.558594 7.558594 7.558594h272.902344v19.496093c-.3125.660157-.601563 1.328125-.871094 2.007813l-4.261719 10.753906c0 .003906-.003906.007812-.007813.015625-.039062.078125-.078124.160156-.109374.25l-71.589844 180.597656h-236.035156c-4.171876 0-7.554688 3.382813-7.554688 7.554688 0 4.175781 3.382812 7.558593 7.554688 7.558593h230.042968l-8.722656 22.003907h-266.78125c-4.171875 0-7.554688 3.382812-7.554688 7.558593 0 4.171876 3.382813 7.554688 7.554688 7.554688h262.886719l-.597657 21.976562h-262.289062c-4.171875 0-7.554688 3.382813-7.554688 7.558594 0 4.171875 3.382813 7.554688 7.554688 7.554688h261.878906l-.445312 16.507812c-.003906.082032-.003906.167969-.003906.253906.011718 1.820313.214843 3.570313.585937 5.246094h-262.015625c-4.171875 0-7.554688 3.382813-7.554688 7.554688 0 4.175781 3.382813 7.558594 7.554688 7.558594h275.515625c1.847656.5625 3.738281.855468 5.632813.855468 5.796874 0 11.578124-2.585937 15.878906-7.375l38.445312-43.328125c.609375-.6875 1.0625-1.457031 1.378906-2.261719l21.484376-54.1875zm-81.195313-74.742188.683594-25.15625 39.207031 15.523438-16.703125 18.820312zm12.515625 21.21875-3.90625 4.398438c-2.152344 2.398437-4.550781 2.636718-6.078125 2.058594-1.941406-.738282-3.078125-2.855469-3.125-5.816407l.15625-5.773437zm83.796875-164.433594-15.117187 38.121094-32.753907 82.597656-45.207031-17.902343 77.960938-196.652344 6.015624-15.1875 9.101563 3.601563 36.128906 14.304687zm0 0"/></svg>