<svg id="Capa_1" enable-background="new 0 0 512 512" height="512" viewBox="0 0 512 512" width="512" xmlns="http://www.w3.org/2000/svg"><g><path d="m60.25 271.125h90.25v30h-90.25z"/><path d="m60.25 331.375h60.125v30h-60.125z"/><path d="m421.625 248.736v-248.736h-421.625v421.625h248.736c18.631 52.596 68.864 90.375 127.764 90.375 74.715 0 135.5-60.785 135.5-135.5 0-58.9-37.779-109.133-90.375-127.764zm-30-218.736v30.251h-120.625v-30.251zm-150.625 0v102.458l-30.188-13.361-30.187 13.361v-102.458zm-90.375 0v30.251h-120.625v-30.251zm-120.625 361.625v-301.374h120.625v88.293l60.187-26.639 60.188 26.639v-88.293h120.625v151.598c-4.967-.555-10.012-.849-15.125-.849-74.715 0-135.5 60.785-135.5 135.5 0 5.113.294 10.158.849 15.125zm346.5 90.375c-58.173 0-105.5-47.327-105.5-105.5s47.327-105.5 105.5-105.5 105.5 47.327 105.5 105.5-47.327 105.5-105.5 105.5z"/><path d="m437.025 337.188-21.213-21.213-38.962 38.962-38.962-38.962-21.213 21.213 38.962 38.962-38.962 38.962 21.213 21.213 38.962-38.962 38.962 38.962 21.213-21.213-38.962-38.962z"/></g></svg>