<?xml version="1.0" encoding="iso-8859-1"?>
<!-- Generator: Adobe Illustrator 19.0.0, SVG Export Plug-In . SVG Version: 6.00 Build 0)  -->
<svg version="1.1" id="Capa_1" xmlns="http://www.w3.org/2000/svg" xmlns:xlink="http://www.w3.org/1999/xlink" x="0px" y="0px"
	 viewBox="0 0 512 512" style="enable-background:new 0 0 512 512;" xml:space="preserve">
<g>
	<g>
		<path d="M52,0v512h408V0H52z M430,482H82V30h348V482z"/>
	</g>
</g>
<g>
	<g>
		<rect x="340" y="289" width="30" height="30"/>
	</g>
</g>
<g>
	<g>
		<rect x="142" y="289" width="138" height="30"/>
	</g>
</g>
<g>
	<g>
		<rect x="340" y="349" width="30" height="30"/>
	</g>
</g>
<g>
	<g>
		<rect x="142" y="349" width="138" height="30"/>
	</g>
</g>
<g>
	<g>
		<rect x="340" y="409" width="30" height="30"/>
	</g>
</g>
<g>
	<g>
		<rect x="142" y="409" width="138" height="30"/>
	</g>
</g>
<g>
	<g>
		<path d="M301,62c-17.119,0-33.105,6.623-45,18.06C244.105,68.623,228.119,62,211,62c-35.841,0-65,29.159-65,65
			c0,77.431,99.029,128.267,103.245,130.393L256,260.8l6.755-3.407C266.971,255.267,366,204.431,366,127
			C366,91.159,336.841,62,301,62z M255.984,226.866c-8.267-4.796-22.967-14.04-37.652-26.786C199.021,183.317,176,157.033,176,127
			c0-19.299,15.701-35,35-35c13.18,0,25.116,7.296,31.149,19.042l4.186,8.146h19.33l4.186-8.146C275.884,99.296,287.82,92,301,92
			c19.299,0,35,15.701,35,35C336,176.106,276.394,214.993,255.984,226.866z"/>
	</g>
</g>
<g>
</g>
<g>
</g>
<g>
</g>
<g>
</g>
<g>
</g>
<g>
</g>
<g>
</g>
<g>
</g>
<g>
</g>
<g>
</g>
<g>
</g>
<g>
</g>
<g>
</g>
<g>
</g>
<g>
</g>
</svg>
