<svg id="Layer_1" enable-background="new 0 0 256 256" height="512" viewBox="0 0 256 256" width="512" xmlns="http://www.w3.org/2000/svg"><path d="m193.282 87.158h-170.277c-3.169 0-5.738 2.569-5.738 5.738v14.656c0 3.169 2.569 5.737 5.738 5.737h170.278c3.169 0 5.738-2.569 5.738-5.737v-14.656c-.001-3.169-2.57-5.738-5.739-5.738z" fill="#ef6d7a"/><path d="m193.282 85.658h-125.778c-.828 0-1.5.671-1.5 1.5s.672 1.5 1.5 1.5h125.778c2.337 0 4.238 1.901 4.238 4.238v14.656c0 2.337-1.901 4.238-4.238 4.238h-170.277c-2.337 0-4.238-1.901-4.238-4.238v-14.656c0-2.337 1.901-4.238 4.238-4.238h29.802c.828 0 1.5-.671 1.5-1.5s-.672-1.5-1.5-1.5h-29.802c-3.991 0-7.238 3.247-7.238 7.238v14.656c0 3.991 3.247 7.238 7.238 7.238h170.277c3.991 0 7.238-3.247 7.238-7.238v-14.656c.001-3.991-3.247-7.238-7.238-7.238z" fill="#3a312a"/><path d="m27.414 113.29v119.893c0 3.528 2.86 6.388 6.388 6.388h145.977c3.528 0 6.388-2.86 6.388-6.388v-119.893z" fill="#ef6d7a"/><path d="m186.167 111.79h-158.753c-.828 0-1.5.671-1.5 1.5v24.006c0 .829.672 1.5 1.5 1.5s1.5-.671 1.5-1.5v-22.506h155.753v118.393c0 2.695-2.192 4.888-4.888 4.888h-145.977c-2.695 0-4.888-2.192-4.888-4.888v-81.299c0-.829-.672-1.5-1.5-1.5s-1.5.671-1.5 1.5v81.299c0 4.349 3.538 7.888 7.888 7.888h145.978c4.35 0 7.888-3.539 7.888-7.888v-119.893c-.001-.829-.673-1.5-1.501-1.5z" fill="#3a312a"/><path d="m78.564 87.158h60.789v26.132h-60.789z" fill="#d6df58"/><path d="m139.353 85.658h-60.789c-.828 0-1.5.671-1.5 1.5v26.132c0 .829.672 1.5 1.5 1.5h60.788c.828 0 1.5-.671 1.5-1.5v-26.132c.001-.828-.671-1.5-1.499-1.5zm-1.5 26.132h-57.789v-23.132h57.788v23.132z" fill="#3a312a"/><path d="m78.564 113.307v40.277l18.441-13.041 6.248 13.041 7.471-6.792 8.694 6.792 9.509-7.539 10.426 7.539v-40.277z" fill="#d6df58"/><path d="m139.353 111.808h-60.789c-.828 0-1.5.671-1.5 1.5v40.276c0 .561.313 1.074.811 1.332.497.258 1.099.217 1.556-.107l16.989-12.014 5.481 11.438c.205.428.6.733 1.064.824.096.018.192.028.288.028.37 0 .731-.137 1.009-.39l6.536-5.941 7.696 6.014c.546.425 1.314.424 1.856-.007l8.619-6.833 9.505 6.873c.457.331 1.06.376 1.562.121.502-.256.817-.772.817-1.336v-40.276c0-.831-.672-1.502-1.5-1.502zm-1.5 38.84-8.047-5.819c-.545-.394-1.284-.378-1.811.04l-8.584 6.806-7.763-6.065c-.272-.212-.599-.318-.924-.318-.362 0-.724.131-1.009.39l-5.98 5.437-5.378-11.223c-.19-.398-.548-.693-.976-.804-.427-.111-.882-.028-1.243.227l-16.074 11.367v-35.878h57.788v35.84z" fill="#3a312a"/><path d="m93.676 214.168h-47.408c-1.951 0-3.532 1.581-3.532 3.532v3.804c0 1.951 1.581 3.532 3.532 3.532h47.408c1.951 0 3.532-1.581 3.532-3.532v-3.804c0-1.95-1.581-3.532-3.532-3.532z" fill="#87796f"/><path d="m93.677 212.669h-47.408c-2.774 0-5.032 2.257-5.032 5.032v3.804c0 2.774 2.258 5.032 5.032 5.032h47.408c2.774 0 5.031-2.257 5.031-5.032v-3.805c0-2.774-2.257-5.031-5.031-5.031zm2.031 8.835c0 1.12-.911 2.032-2.031 2.032h-47.408c-1.12 0-2.032-.912-2.032-2.032v-3.804c0-1.12.912-2.032 2.032-2.032h47.408c1.12 0 2.031.912 2.031 2.032z" fill="#3a312a"/><path d="m47.701 26.106c-.974 11.564-13.025 13.39-13.025 13.39 10.347.487 12.925 14.059 12.925 14.059.221-9.677 13.321-14.202 13.321-14.202-9.812-.587-13.221-13.247-13.221-13.247z" fill="#d6df58"/><path d="m61.013 37.855c-8.604-.514-11.832-12.024-11.863-12.14-.19-.702-.848-1.165-1.584-1.102-.725.066-1.298.642-1.359 1.367-.859 10.215-11.313 11.963-11.754 12.032-.763.115-1.313.79-1.273 1.561.04.77.657 1.384 1.428 1.421 9.028.425 11.499 12.718 11.523 12.842.138.711.76 1.217 1.473 1.217.042 0 .084-.002.126-.005.765-.064 1.358-.693 1.375-1.459.193-8.508 12.191-12.777 12.312-12.819.676-.235 1.092-.915.994-1.623-.101-.708-.684-1.249-1.398-1.292zm-13.566 10.346c-1.357-3.13-3.709-6.907-7.588-8.876 2.932-1.405 6.409-3.913 8.202-8.273 1.551 3.071 4.2 6.88 8.334 8.722-3.006 1.64-6.921 4.406-8.948 8.427z" fill="#3a312a"/><path d="m26.003 43.087c-.689 8.179-9.212 9.471-9.212 9.471 7.318.344 9.142 9.944 9.142 9.944.156-6.845 9.422-10.046 9.422-10.046-6.942-.415-9.352-9.369-9.352-9.369z" fill="#d6df58"/><path d="m35.444 50.958c-5.767-.345-7.972-8.185-7.993-8.264-.19-.702-.865-1.16-1.582-1.102-.726.065-1.3.642-1.361 1.368-.579 6.871-7.646 8.067-7.942 8.114-.763.115-1.313.79-1.273 1.561.04.77.657 1.384 1.428 1.421 6.035.284 7.724 8.643 7.739 8.725.136.712.759 1.22 1.473 1.22.041 0 .083-.002.125-.005.765-.063 1.358-.694 1.376-1.461.13-5.709 8.331-8.634 8.412-8.662.676-.234 1.093-.913.996-1.622-.099-.708-.684-1.249-1.398-1.293zm-9.585 6.796c-.924-1.886-2.34-3.947-4.447-5.28 1.856-1.041 3.697-2.63 4.871-4.917 1.057 1.874 2.654 3.955 4.941 5.224-1.85 1.101-3.989 2.74-5.365 4.973z" fill="#3a312a"/><path d="m26.003 16.429c-.689 8.179-9.212 9.47-9.212 9.47 7.318.344 9.142 9.944 9.142 9.944.156-6.845 9.422-10.045 9.422-10.045-6.942-.415-9.352-9.369-9.352-9.369z" fill="#d6df58"/><path d="m35.444 24.301c-5.767-.345-7.972-8.186-7.993-8.265-.19-.702-.865-1.166-1.582-1.102-.726.065-1.3.642-1.361 1.368-.579 6.871-7.646 8.067-7.942 8.114-.763.115-1.313.79-1.273 1.561.04.77.657 1.384 1.428 1.421 6.035.284 7.724 8.644 7.739 8.726.136.713.759 1.22 1.473 1.22.041 0 .083-.001.125-.005.765-.063 1.358-.694 1.376-1.461.13-5.709 8.331-8.634 8.412-8.662.676-.234 1.093-.913.996-1.622-.099-.708-.684-1.25-1.398-1.293zm-9.585 6.795c-.924-1.885-2.34-3.947-4.447-5.28 1.856-1.041 3.697-2.63 4.871-4.917 1.057 1.874 2.654 3.955 4.941 5.224-1.849 1.102-3.989 2.741-5.365 4.973z" fill="#3a312a"/><ellipse cx="175.424" cy="80.215" fill="#87796f" rx="63.785" ry="63.785" transform="matrix(.952 -.305 .305 .952 -16.111 57.362)"/><path d="m175.425 14.929c-35.999 0-65.286 29.287-65.286 65.286s29.287 65.285 65.286 65.285c35.998 0 65.285-29.287 65.285-65.285 0-35.999-29.287-65.286-65.285-65.286zm0 127.571c-34.345 0-62.286-27.941-62.286-62.285s27.941-62.286 62.286-62.286c34.344 0 62.285 27.941 62.285 62.286 0 34.344-27.941 62.285-62.285 62.285z" fill="#3a312a"/><ellipse cx="175.424" cy="80.215" fill="#f8e4c8" rx="50.215" ry="50.215" transform="matrix(.924 -.383 .383 .924 -17.344 73.238)"/><path d="m175.425 28.5c-28.516 0-51.715 23.199-51.715 51.715s23.199 51.714 51.715 51.714 51.715-23.199 51.715-51.714c0-28.516-23.2-51.715-51.715-51.715zm0 100.429c-26.861 0-48.715-21.853-48.715-48.714s21.853-48.715 48.715-48.715 48.715 21.854 48.715 48.715-21.854 48.714-48.715 48.714z" fill="#3a312a"/><path d="m175.427 145.5c-3.32 0-6.58-.25-9.76-.73v88.41c0 2.7-2.19 4.89-4.89 4.89h19c2.7 0 4.89-2.19 4.89-4.89v-88.35c-3.02.43-6.1.67-9.24.67z" fill="#d24e5c"/><g fill="#3a312a"><path d="m175.643 39c-.87 0-1.575.705-1.575 1.575v3.201c0 .87.705 1.576 1.575 1.576s1.575-.705 1.575-1.576v-3.201c0-.87-.705-1.575-1.575-1.575z"/><path d="m175.643 115.317c-.87 0-1.575.705-1.575 1.575v3.201c0 .87.705 1.576 1.575 1.576s1.575-.705 1.575-1.576v-3.201c0-.87-.705-1.575-1.575-1.575z"/><path d="m215.402 78.759h-3.201c-.87 0-1.575.705-1.575 1.576 0 .87.705 1.575 1.575 1.575h3.201c.87 0 1.576-.705 1.576-1.575-.001-.871-.706-1.576-1.576-1.576z"/><path d="m139.085 78.759h-3.201c-.87 0-1.576.705-1.576 1.576 0 .87.705 1.575 1.576 1.575h3.201c.87 0 1.575-.705 1.575-1.575 0-.871-.705-1.576-1.575-1.576z"/><path d="m204.87 51.107c-.615-.615-1.613-.615-2.228 0l-2.263 2.263c-.615.615-.615 1.613 0 2.228s1.613.615 2.228 0l2.263-2.263c.616-.616.616-1.613 0-2.228z"/><path d="m150.906 105.071c-.615-.615-1.613-.615-2.228 0l-2.263 2.263c-.615.615-.615 1.613 0 2.228s1.613.615 2.228 0l2.263-2.263c.616-.615.616-1.613 0-2.228z"/><path d="m204.87 107.334-2.263-2.263c-.615-.615-1.613-.615-2.228 0s-.615 1.613 0 2.228l2.263 2.263c.615.615 1.613.615 2.228 0 .616-.615.616-1.613 0-2.228z"/><path d="m150.906 53.37-2.263-2.263c-.615-.615-1.613-.615-2.228 0s-.615 1.613 0 2.228l2.263 2.263c.615.615 1.613.615 2.228 0 .616-.616.616-1.613 0-2.228z"/><path d="m176.703 79.274-13.597-13.597c-.586-.586-1.535-.586-2.121 0s-.586 1.536 0 2.121l13.597 13.597c.293.293.677.44 1.061.44s.768-.147 1.061-.44c.585-.585.585-1.536-.001-2.121z"/><path d="m199.033 57.44c-.586-.586-1.535-.586-2.121 0l-22.082 22.082c-.586.585-.586 1.536 0 2.121.293.293.677.439 1.061.439s.768-.147 1.061-.439l22.082-22.082c.585-.585.585-1.536-.001-2.121z"/></g></svg>