<svg id="Capa_1" enable-background="new 0 0 512 512" height="512" viewBox="0 0 512 512" width="512" xmlns="http://www.w3.org/2000/svg"><g><g><path clip-rule="evenodd" d="m431.994 71.986c16.581 0 30.021-13.435 30.021-29.981 0-16.575-13.44-30.01-30.021-30.01s-30.021 13.435-30.021 30.01c0 16.547 13.44 29.981 30.021 29.981z" fill="#fe76a8" fill-rule="evenodd"/></g><g><path clip-rule="evenodd" d="m155.29 277.839-34.908-53.564c-119.094-93.287-167.296 79.997-27.606 63.421z" fill="#fe76a8" fill-rule="evenodd"/></g><g><path clip-rule="evenodd" d="m206.518 224.304c87.532-110.036-85.234-160.169-68.478-9.858l29.119 50.162z" fill="#fe76a8" fill-rule="evenodd"/></g><g><path clip-rule="evenodd" d="m108.805 278.74 48.987-9.305 31.795-35.709-10.211-18.291c-1.92-3.46-4.683-6.136-7.883-7.968-6.167-3.519-14.021-3.838-20.654-.145l-12.8 7.124-17.658 9.829-13.672 7.648c-6.342 3.519-10.123 9.887-10.676 16.633-.349 3.984.465 8.113 2.56 11.864z" fill="#fece85" fill-rule="evenodd"/></g><g><path clip-rule="evenodd" d="m219.114 286.679 85.699-47.748c7.069-3.955 9.629-12.94 5.702-20.007l-15.215-27.276c-3.956-7.066-12.945-9.625-20.014-5.67l-68.769 38.326-16.93 9.422v35.709z" fill="#01d0fb" fill-rule="evenodd"/></g><g><path clip-rule="evenodd" d="m221.528 500.004 21.556-97.648-21.556-92.472h-44.042l-53.904-4.653-10.792 40.711v134.928c0 10.527 8.611 19.134 19.141 19.134z" fill="#99e6fc" fill-rule="evenodd"/></g><g><path clip-rule="evenodd" d="m52.632 379.471 85.699-47.777 2.444-35.709-31.97-17.244-16.029 8.956-69.7 38.821c-7.04 3.926-9.6 12.911-5.673 19.977l15.215 27.305c3.927 7.037 12.945 9.596 20.014 5.671z" fill="#01d0fb" fill-rule="evenodd"/></g><g><path clip-rule="evenodd" d="m401.886 480.87v-124.517-35.768c0-5.874-4.829-10.701-10.705-10.701h-98.033l-25.628 95.089 25.628 95.031h89.597c10.53 0 19.141-8.607 19.141-19.134z" fill="#99e6fc" fill-rule="evenodd"/></g><g><path clip-rule="evenodd" d="m206.518 224.304c60.071-75.519-2.473-122.831-42.18-96.485 32.726 1.832 61.06 41.031 20.479 97.387l4.771 8.52z" fill="#fe5694" fill-rule="evenodd"/></g><g><path clip-rule="evenodd" d="m120.382 224.274c-67.954-53.215-112.81-19.686-112.898 15.878 14.138-20.472 47.126-30.213 91.837-1.309 1.804-2.792 4.276-5.205 7.389-6.921z" fill="#fe5694" fill-rule="evenodd"/></g><g><path clip-rule="evenodd" d="m184.817 225.205-5.44-9.771c-1.92-3.46-4.683-6.136-7.883-7.968-6.167-3.519-14.021-3.838-20.654-.145l-12.8 7.124-12.16 6.775c6.632-3.693 14.458-3.373 20.654.145 3.2 1.832 5.963 4.536 7.883 7.968l10.211 18.32 24.959-13.929z" fill="#fdb440" fill-rule="evenodd"/></g><g><path clip-rule="evenodd" d="m304.813 238.93c7.069-3.955 9.629-12.94 5.702-20.007l-15.215-27.275c-3.956-7.066-12.945-9.625-20.014-5.67l-34.384 19.163c7.069-3.955 16.058-1.396 19.985 5.67l15.214 27.276c3.927 7.066 1.396 16.023-5.614 19.977z" fill="#00b1cd" fill-rule="evenodd"/></g><g><path clip-rule="evenodd" d="m219.114 286.679-29.526-52.953-80.783 45.015 29.526 52.953c26.966-15.035 53.816-29.981 80.783-45.015z" fill="#fe5694" fill-rule="evenodd"/></g><g><path clip-rule="evenodd" d="m221.528 309.884h71.619v190.12h-71.619z" fill="#fe76a8" fill-rule="evenodd"/></g><g><path clip-rule="evenodd" d="m401.886 356.353v-35.768c0-5.874-4.829-10.701-10.705-10.701h-43.199c5.876 0 10.705 4.827 10.705 10.701v35.768 124.517c0 10.527-8.64 19.134-19.17 19.134h43.228c10.531 0 19.141-8.607 19.141-19.134z" fill="#2ed1e2" fill-rule="evenodd"/></g><g><path clip-rule="evenodd" d="m341.059 77.337 14.72-17.738c3.025-3.431 2.822-4.449-1.629-5.554l-22.865-5.67c-2.589-.64-2.734-1.338-4.014-3.431l-11.549-19.28c-2.327-3.926-3.753-3.926-6.109 0l-11.549 19.28c-1.251 2.094-1.425 2.792-4.014 3.431l-22.865 5.67c-4.422 1.105-4.654 2.123-1.629 5.554l14.749 17.738c1.571 1.89 1.804 4.1 1.6 6.776l-1.775 21.926c-.495 4.536.465 5.089 4.713 3.373l20.101-8.375c2.094-.872 5.382-.872 7.447 0l20.13 8.375c4.247 1.716 5.178 1.163 4.683-3.373l-1.745-21.926c-.204-2.676 0-4.886 1.6-6.776z" fill="#fece85" fill-rule="evenodd"/></g><g><path clip-rule="evenodd" d="m313.511 59.046c-2.996 19.192-9.367 35.913-17.076 47.196l12.509-5.205c2.094-.872 5.382-.872 7.447 0l20.13 8.375c4.247 1.716 5.178 1.163 4.683-3.373l-1.745-21.926c-.204-2.675 0-4.885 1.6-6.776l14.72-17.738c3.025-3.431 2.822-4.449-1.629-5.554l-22.865-5.67c-2.589-.64-2.734-1.338-4.014-3.431l-11.549-19.28c-.378-.64-.727-1.163-1.047-1.57 1.105 10.438.814 22.419-1.164 34.952z" fill="#fdb440" fill-rule="evenodd"/></g><g><path clip-rule="evenodd" d="m487.73 249.748 14.719-17.738c3.054-3.431 2.822-4.449-1.629-5.554l-22.865-5.67c-2.56-.64-2.734-1.338-3.985-3.431l-11.549-19.28c-2.356-3.926-3.782-3.926-6.109 0l-11.578 19.28c-1.251 2.094-1.425 2.792-3.985 3.431l-22.865 5.67c-4.451 1.105-4.683 2.123-1.629 5.554l14.72 17.738c1.6 1.89 1.804 4.1 1.6 6.775l-1.774 21.897c-.465 4.565.465 5.118 4.713 3.402l20.101-8.375c2.094-.872 5.382-.872 7.476 0l20.101 8.375c4.247 1.716 5.178 1.163 4.713-3.402l-1.774-21.897c-.204-2.675-.001-4.885 1.599-6.775z" fill="#fece85" fill-rule="evenodd"/></g><g><path clip-rule="evenodd" d="m460.211 231.457c-3.025 19.192-9.367 35.913-17.105 47.196l12.509-5.205c2.094-.872 5.382-.872 7.476 0l20.101 8.375c4.247 1.716 5.178 1.163 4.713-3.402l-1.774-21.897c-.204-2.675 0-4.885 1.6-6.775l14.719-17.738c3.054-3.431 2.822-4.449-1.629-5.554l-22.865-5.67c-2.56-.64-2.734-1.338-3.985-3.431l-11.549-19.28c-.378-.64-.727-1.163-1.076-1.599 1.134 10.466.814 22.447-1.135 34.98z" fill="#fdb440" fill-rule="evenodd"/></g><g><path clip-rule="evenodd" d="m462.015 42.006c0-16.575-13.44-30.01-30.021-30.01-5.469 0-10.589 1.454-15.01 4.013 8.989 5.176 15.01 14.889 15.01 25.997 0 11.079-6.022 20.792-15.01 25.968 4.422 2.559 9.542 4.013 15.01 4.013 16.581-.001 30.021-13.435 30.021-29.981z" fill="#fe5694" fill-rule="evenodd"/></g><g><path d="m391.181 302.384h-184.82l102.114-56.908c10.674-5.972 14.53-19.517 8.589-30.205l-15.22-27.288c-5.984-10.69-19.542-14.524-30.209-8.558l-42.477 23.669c4.995-10.024 8.104-19.853 9.254-29.399 1.916-15.895-1.691-30.241-10.431-41.488-14.205-18.279-39.008-24.355-60.319-14.778-3.778 1.698-5.464 6.137-3.766 9.916 1.698 3.777 6.137 5.464 9.916 3.766 14.977-6.732 32.382-2.496 42.325 10.3 14.278 18.374 8.801 47.114-14.594 77.071l-9.058 5.047-6.555-11.743c-1.683-3.025-3.868-5.664-6.438-7.843 1.593-9.538 6.034-21.882 10.944-29.945 2.154-3.538 1.033-8.152-2.505-10.306-3.538-2.155-8.152-1.032-10.306 2.505-5.284 8.677-9.863 20.701-12.166 31.339-6.282-1.003-12.66.103-18.272 3.232l-2.593 1.446c-1.029-21.641 2.326-39.753 9.886-52.815 2.075-3.585.851-8.173-2.734-10.248-3.583-2.073-8.173-.851-10.248 2.734-10.032 17.334-13.855 40.334-11.4 68.41l-9.057 5.049c-38.268-28.447-75.713-34.263-100.836-15.416-18.188 13.643-25.04 37.786-16.662 58.711 8.548 21.348 29.922 34.348 59.368 37.093l-43.487 24.232c-10.668 5.949-14.515 19.484-8.571 30.178l15.217 27.311c4.055 7.266 11.633 11.367 19.434 11.367 3.654 0 7.357-.9 10.77-2.795.003-.001.006-.003.009-.005l49.007-27.311v122.16c0 14.686 11.951 26.634 26.641 26.634h250.814c14.69 0 26.642-11.948 26.642-26.634v-160.284c-.001-10.036-8.168-18.201-18.206-18.201zm-249.944 19.121-22.226-39.86 67.68-37.713 22.224 39.856-33.842 18.86c-1.208.324-2.294.94-3.179 1.772zm137.712-128.982c1.106-.619 2.307-.913 3.494-.913 2.528 0 4.987 1.333 6.308 3.69l15.208 27.267c1.928 3.468.668 7.873-2.796 9.811l-79.145 44.107-22.223-39.856zm-124.457 21.349c2.012-1.122 4.236-1.692 6.496-1.692 1.247 0 2.504.174 3.742.525 3.481.988 6.355 3.252 8.098 6.386l6.552 11.737-67.675 37.711-6.562-11.773c-1.292-2.315-1.85-4.912-1.649-7.515.007-.072.016-.143.021-.215.078-.83.226-1.66.46-2.481.987-3.47 3.253-6.338 6.386-8.08zm-137.024 39.193c-5.861-14.639-1.035-31.554 11.738-41.135 18.395-13.798 46.811-9.408 77.344 11.495l-3.484 1.942c-5.516 3.067-9.758 7.783-12.232 13.497-9.904-3.119-18.798-4.831-31.539-6.226-4.121-.448-7.821 2.522-8.272 6.639-.451 4.118 2.522 7.821 6.639 8.272 14.015 1.534 22.26 3.443 31.023 6.38.458 3.521 1.579 6.955 3.357 10.142l6.562 11.773-8.188 4.563c-37.22 4.069-64.441-6.094-72.948-27.342zm31.514 119.854c-3.423 1.894-7.916.627-9.812-2.769l-15.21-27.299c-1.928-3.468-.685-7.857 2.768-9.782l69.371-38.656c.22-.109.433-.227.639-.356l9.171-5.11 22.226 39.86-18.872 10.518c-.04.021-.079.044-.119.066zm71.308 107.951v-130.519l59.155-32.967h34.583v66.42c0 4.142 3.358 7.5 7.5 7.5s7.5-3.358 7.5-7.5v-66.42h56.619v175.12h-56.619v-73.166c0-4.142-3.358-7.5-7.5-7.5s-7.5 3.358-7.5 7.5v73.166h-82.097c-6.419 0-11.641-5.219-11.641-11.634zm274.096 0c0 6.415-5.222 11.634-11.641 11.634h-82.097v-175.12h90.533c1.737 0 3.205 1.466 3.205 3.201z"/><path d="m363.681 134.355c.1.922 9.618 92.627-22.492 127.435-2.809 3.045-2.617 7.79.427 10.598 1.442 1.33 3.265 1.987 5.084 1.987 2.021 0 4.036-.812 5.515-2.415 36.681-39.764 26.817-135.179 26.379-139.222-.446-4.118-4.144-7.09-8.264-6.649-4.118.448-7.095 4.148-6.649 8.266z"/><path d="m432.285 123.209c-12.688 19.428-16.719 36.767-16.885 37.496-.916 4.034 1.609 8.04 5.641 8.964.563.128 1.124.19 1.678.19 3.415 0 6.504-2.352 7.305-5.82.036-.156 3.748-15.846 15.112-33.074 14.953-22.669 35.507-37.26 61.09-43.367 4.029-.961 6.516-5.007 5.554-9.036-.961-4.029-5.006-6.515-9.036-5.554-29.197 6.969-53.562 24.328-70.459 50.201z"/><path d="m278.436 82.009c.026.182.06.618-.007 1.498l-1.766 21.822c-.251 2.314-.747 7.494 3.481 10.693 4.3 3.254 9.351 1.214 11.584.313l20.044-8.354c.397-.128 1.376-.132 1.738-.02l20.203 8.404c1.271.514 3.549 1.434 6.085 1.434 1.76 0 3.645-.443 5.403-1.774 4.216-3.191 3.723-8.372 3.472-10.692l-1.734-21.791c-.067-.878-.043-1.324-.02-1.522l14.561-17.547c1.682-1.91 5.003-5.777 3.439-10.791-1.587-5.087-6.755-6.37-8.963-6.918l-22.138-5.491-11.643-19.435c-1.071-1.807-3.915-6.605-9.471-6.62-.009 0-.018 0-.026 0-5.541 0-8.412 4.782-9.494 6.585-.001.002-.002.004-.003.006l-11.553 19.287-.105.178-22.154 5.494c-2.202.55-7.36 1.839-8.942 6.925-1.56 5.013 1.873 9.013 3.433 10.784zm17.412-26.354c5.001-1.236 6.805-3.713 8.355-6.359l8.464-14.138 8.542 14.258c1.543 2.591 3.337 5.018 8.271 6.237l16.443 4.078-10.589 12.76c-3.481 4.114-3.621 8.675-3.351 12.216l1.21 15.196-13.884-5.776c-3.944-1.666-9.268-1.671-13.25-.014l-13.908 5.796 1.232-15.227c.244-3.207.167-7.955-3.312-12.14l-10.653-12.812z"/><path d="m508.139 236.899c1.581-1.778 5.02-5.766 3.468-10.781-1.579-5.104-6.765-6.392-8.981-6.942l-22.107-5.483-11.666-19.479c-1.082-1.802-3.953-6.585-9.494-6.585-.009 0-.018 0-.026 0-5.536.015-8.38 4.78-9.46 6.601l-11.575 19.276-.11.187-22.109 5.483c-2.214.549-7.4 1.837-8.979 6.941-1.551 5.015 1.887 9.003 3.468 10.78l14.55 17.534c.023.197.048.635-.017 1.486l-1.768 21.819c-.235 2.307-.716 7.53 3.523 10.715 4.291 3.224 9.32 1.193 11.543.294l20.046-8.354c.408-.131 1.41-.131 1.763-.021l20.176 8.405c1.27.513 3.546 1.433 6.083 1.433 1.753 0 3.631-.44 5.386-1.758 4.239-3.185 3.758-8.407 3.523-10.715l-1.765-21.783c-.067-.877-.043-1.323-.02-1.522zm-26.133 8.003c-3.482 4.113-3.622 8.675-3.352 12.227l1.231 15.19-13.91-5.796c-3.961-1.65-9.284-1.649-13.244 0l-13.91 5.796 1.234-15.227c.268-3.515.128-8.077-3.307-12.135l-10.634-12.816 16.455-4.081c4.962-1.24 6.758-3.71 8.303-6.347l8.493-14.151 8.169 13.638.303.513c1.544 2.638 3.341 5.108 8.316 6.35l16.443 4.078z"/><path d="m431.994 79.487c20.689 0 37.521-16.814 37.521-37.481 0-20.683-16.832-37.51-37.521-37.51s-37.521 16.827-37.521 37.51c0 20.667 16.832 37.481 37.521 37.481zm0-59.991c12.418 0 22.521 10.098 22.521 22.51 0 12.396-10.103 22.481-22.521 22.481s-22.52-10.085-22.52-22.481c-.001-12.412 10.102-22.51 22.52-22.51z"/></g></g></svg>