<?xml version="1.0"?>
<svg xmlns="http://www.w3.org/2000/svg" width="512" height="512" viewBox="0 0 512 512"><g><path d="M464,304V280a40.04,40.04,0,0,0-40-40H288a39.947,39.947,0,0,0-32,16.03A39.947,39.947,0,0,0,224,240H88a40.04,40.04,0,0,0-40,40v24A40.04,40.04,0,0,0,8,344V488a8,8,0,0,0,8,8H496a8,8,0,0,0,8-8V344A40.04,40.04,0,0,0,464,304ZM88,480H24V344a24.032,24.032,0,0,1,24-24H64a24.032,24.032,0,0,1,24,24ZM64,304V280a24.032,24.032,0,0,1,24-24H224a24.032,24.032,0,0,1,24,24v96.02A39.808,39.808,0,0,0,224,368H128a39.808,39.808,0,0,0-24,8.02V344A40.04,40.04,0,0,0,64,304ZM248,408v24H104V408a24.032,24.032,0,0,1,24-24h96A24.032,24.032,0,0,1,248,408Zm160,72H104V448H408Zm0-48H264V408a24.032,24.032,0,0,1,24-24h96a24.032,24.032,0,0,1,24,24Zm0-88v32.02A39.808,39.808,0,0,0,384,368H288a39.808,39.808,0,0,0-24,8.02V280a24.032,24.032,0,0,1,24-24H424a24.032,24.032,0,0,1,24,24v24A40.04,40.04,0,0,0,408,344Zm80,136H424V344a24.032,24.032,0,0,1,24-24h16a24.032,24.032,0,0,1,24,24Z"/><path d="M376,16H136a8,8,0,0,0-8,8V200a8,8,0,0,0,8,8H376a8,8,0,0,0,8-8V24A8,8,0,0,0,376,16Zm-8,176H144V32H368Z"/><path d="M352,40H160a8,8,0,0,0-8,8V176a8,8,0,0,0,8,8H352a8,8,0,0,0,8-8V48A8,8,0,0,0,352,40ZM193.08,168,216,140.5,238.92,168Zm66.67,0-16.67-20,32.59-39.11L320,168ZM344,168h-4L282.4,91.2a8,8,0,0,0-12.55-.32L232.67,135.5l-10.52-12.62a8.006,8.006,0,0,0-12.3,0L172.25,168H168V56H344Z"/><path d="M216,112a24,24,0,1,0-24-24A24.027,24.027,0,0,0,216,112Zm0-32a8,8,0,1,1-8,8A8.009,8.009,0,0,1,216,80Z"/></g></svg>
