<svg id="Capa_1" enable-background="new 0 0 512.035 512.035" height="512" viewBox="0 0 512.035 512.035" width="512" xmlns="http://www.w3.org/2000/svg"><path d="m451.147 163.616c-7.289-7.944-17.235-12.954-27.853-14.176l-46.704-109.264c-10.433-24.406-34.324-40.176-60.866-40.176h-119.413c-26.542 0-50.434 15.77-60.866 40.176l-46.705 109.264c-10.617 1.222-20.562 6.232-27.852 14.175-8.441 9.2-12.668 21.61-11.598 34.05l11.916 138.421c1.019 11.836 9.184 21.278 20.079 24.29v23.676c0 4.142 3.357 7.5 7.5 7.5s7.5-3.358 7.5-7.5v-22.66h38.796l-31.969 133.776c-.263 1.099-1.234 1.867-2.364 1.867h-2.032c-1.34 0-2.431-1.091-2.431-2.431v-78.589c0-4.142-3.357-7.5-7.5-7.5s-7.5 3.358-7.5 7.5v78.589c0 9.611 7.819 17.431 17.431 17.431h2.032c8.1 0 15.07-5.502 16.954-13.38l32.802-137.263h155.424c4.143 0 7.5-3.358 7.5-7.5s-3.357-7.5-7.5-7.5h-167.416v-17.205h235.012v17.205h-35.633c-4.143 0-7.5 3.358-7.5 7.5s3.357 7.5 7.5 7.5h23.639l32.802 137.264c1.884 7.877 8.854 13.379 16.954 13.379h2.032c9.611 0 17.431-7.82 17.431-17.431v-134.228c10.895-3.012 19.06-12.454 20.079-24.29l11.916-138.42c1.071-12.439-3.155-24.85-11.597-34.05zm-301.909-117.545c8.069-18.875 26.546-31.071 47.073-31.071h119.412c20.527 0 39.005 12.196 47.073 31.071l44.623 104.394c-19.444 4.842-33.897 22.445-33.897 43.367v54.471h-166.121c-4.143 0-7.5 3.358-7.5 7.5s3.357 7.5 7.5 7.5h174.356c7.825 0 14.191 6.366 14.191 14.191v22.5c0 7.826-6.366 14.192-14.191 14.192h-251.48c-7.825 0-14.191-6.366-14.191-14.192v-22.5c0-7.825 6.366-14.191 14.191-14.191h45.161c4.143 0 7.5-3.358 7.5-7.5s-3.357-7.5-7.5-7.5h-36.927v-54.471c0-20.921-14.453-38.524-33.897-43.367zm-73.086 288.729-11.916-138.422c-.723-8.386 2.014-16.42 7.705-22.622 5.68-6.191 13.433-9.604 21.832-9.617.018 0 .036-.001.054-.001 16.369.004 29.685 13.323 29.685 29.693v55.271c-12.844 3.061-22.426 14.624-22.426 28.391v22.5c0 13.767 9.582 25.331 22.426 28.392v18.005h-34.726c-6.634.002-12.065-4.982-12.634-11.59zm337.166 162.235h-2.032c-1.13 0-2.102-.768-2.364-1.866l-31.969-133.777h38.796v133.212c0 1.34-1.091 2.431-2.431 2.431zm34.481-300.656-11.916 138.42c-.568 6.609-6 11.593-12.634 11.593h-34.726v-18.005c12.844-3.061 22.426-14.625 22.426-28.392v-22.5c0-13.767-9.582-25.331-22.426-28.391v-55.271c0-16.367 13.311-29.683 29.676-29.692.007 0 .014.002.021.002.008 0 .017-.001.025-.001 8.406.008 16.166 3.422 21.85 9.617 5.69 6.2 8.426 14.234 7.704 22.62z"/></svg>