<?xml version="1.0" encoding="iso-8859-1"?>
<!-- Generator: Adobe Illustrator 19.0.0, SVG Export Plug-In . SVG Version: 6.00 Build 0)  -->
<svg version="1.1" id="Capa_1" xmlns="http://www.w3.org/2000/svg" xmlns:xlink="http://www.w3.org/1999/xlink" x="0px" y="0px"
	 viewBox="0 0 512 512" style="enable-background:new 0 0 512 512;" xml:space="preserve">
<g>
	<g>
		<path d="M275.7,153.164l45.964-38.304c0.003-0.002,0.006-0.004,0.009-0.007l0.026-0.022c0.148-0.123,0.286-0.253,0.422-0.385
			c0.029-0.028,0.061-0.054,0.09-0.082c0.171-0.171,0.333-0.349,0.485-0.533c0.018-0.023,0.035-0.048,0.053-0.07
			c0.13-0.161,0.254-0.325,0.369-0.494c0.045-0.066,0.084-0.136,0.127-0.203c0.082-0.13,0.164-0.259,0.238-0.392
			c0.051-0.092,0.095-0.187,0.142-0.281c0.057-0.113,0.114-0.227,0.165-0.343c0.047-0.107,0.089-0.217,0.131-0.327
			c0.042-0.108,0.083-0.217,0.119-0.327c0.038-0.114,0.072-0.23,0.105-0.347c0.032-0.113,0.061-0.227,0.088-0.341
			c0.026-0.113,0.05-0.227,0.071-0.342c0.024-0.13,0.043-0.26,0.06-0.391c0.013-0.102,0.027-0.203,0.037-0.306
			c0.015-0.169,0.022-0.338,0.025-0.507c0.001-0.058,0.009-0.114,0.009-0.172c0-0.013-0.002-0.026-0.002-0.039
			c-0.001-0.245-0.012-0.488-0.037-0.733c-0.002-0.028-0.009-0.055-0.012-0.083c-0.023-0.209-0.054-0.416-0.095-0.623
			c-0.019-0.098-0.046-0.193-0.069-0.29c-0.032-0.133-0.063-0.265-0.102-0.397c-0.034-0.114-0.074-0.225-0.113-0.337
			c-0.038-0.11-0.076-0.22-0.12-0.329c-0.048-0.119-0.1-0.236-0.154-0.352c-0.046-0.098-0.091-0.196-0.141-0.292
			c-0.06-0.118-0.125-0.233-0.191-0.347c-0.03-0.052-0.055-0.106-0.087-0.157l-18.667-30.415c-1.383-2.253-3.837-3.627-6.481-3.627
			h-11.748c-0.001,0-0.001,0-0.001,0l-72.582,0.002c-2.644,0-5.098,1.373-6.481,3.627l-18.665,30.413
			c-0.032,0.052-0.057,0.105-0.087,0.157c-0.066,0.114-0.131,0.229-0.191,0.347c-0.05,0.096-0.096,0.194-0.141,0.292
			c-0.053,0.116-0.106,0.233-0.154,0.352c-0.044,0.109-0.082,0.219-0.12,0.329c-0.039,0.112-0.079,0.223-0.113,0.337
			c-0.039,0.132-0.07,0.264-0.102,0.397c-0.023,0.097-0.049,0.192-0.069,0.29c-0.041,0.207-0.072,0.414-0.095,0.623
			c-0.003,0.028-0.009,0.055-0.012,0.083c-0.025,0.245-0.036,0.488-0.037,0.733c0,0.013-0.002,0.026-0.002,0.039
			c0,0.058,0.007,0.114,0.009,0.172c0.003,0.169,0.01,0.338,0.025,0.507c0.009,0.103,0.024,0.204,0.037,0.306
			c0.017,0.131,0.036,0.261,0.06,0.391c0.021,0.115,0.046,0.229,0.071,0.342c0.027,0.114,0.056,0.228,0.088,0.341
			c0.033,0.117,0.067,0.233,0.105,0.347c0.037,0.11,0.078,0.219,0.119,0.327c0.043,0.11,0.084,0.22,0.131,0.327
			c0.051,0.116,0.108,0.23,0.165,0.343c0.047,0.094,0.091,0.189,0.142,0.281c0.074,0.133,0.156,0.262,0.238,0.392
			c0.043,0.067,0.082,0.137,0.127,0.203c0.115,0.169,0.24,0.333,0.369,0.494c0.018,0.023,0.035,0.048,0.053,0.07
			c0.152,0.183,0.313,0.361,0.485,0.533c0.029,0.029,0.06,0.054,0.09,0.082c0.136,0.132,0.274,0.262,0.422,0.385l0.026,0.022
			c0.003,0.003,0.006,0.005,0.009,0.007l45.964,38.304C146.304,163.008,76.04,239.467,76.04,332.04
			C76.04,431.271,156.77,512,256,512s179.96-80.729,179.96-179.96C435.96,239.467,365.696,163.008,275.7,153.164z M263.604,143.448
			v-26.854h32.225L263.604,143.448z M289.565,86.179h4.344l9.333,15.207h-28.884L289.565,86.179z M268.057,86.18L256,98.236
			L243.943,86.18H268.057z M218.089,86.181h4.346l15.206,15.205h-28.884L218.089,86.181z M216.171,116.594h32.225v26.854
			L216.171,116.594z M256,496.792c-90.845,0-164.752-73.908-164.752-164.752S165.155,167.288,256,167.288
			s164.752,73.908,164.752,164.752S346.845,496.792,256,496.792z"/>
	</g>
</g>
<g>
	<g>
		<path d="M393.793,273.834c-3.751-8.861-8.385-17.408-13.788-25.407c-5.353-7.919-11.498-15.36-18.26-22.133
			c-6.773-6.762-14.214-12.907-22.133-18.26c-7.999-5.393-16.546-10.037-25.397-13.788c-18.442-7.797-38.03-11.75-58.216-11.75
			c-20.186,0-39.774,3.953-58.206,11.75c-8.861,3.751-17.408,8.395-25.407,13.788c-7.918,5.353-15.36,11.498-22.133,18.26
			c-6.762,6.772-12.906,14.214-18.259,22.133c-5.394,7.999-10.037,16.545-13.789,25.407c-7.796,18.432-11.75,38.02-11.75,58.206
			c0,29.209,8.425,57.516,24.363,81.838c7.685,11.741,16.982,22.336,27.618,31.511c10.706,9.216,22.619,16.86,35.414,22.711
			c9.55,4.369,19.598,7.725,29.858,9.986c10.544,2.322,21.402,3.498,32.281,3.498h0.031c11.071,0,22.122-1.217,32.839-3.62
			c10.423-2.342,20.612-5.82,30.304-10.342c9.51-4.431,18.594-9.905,26.989-16.251c8.334-6.307,16.019-13.505,22.862-21.393
			c2.748-3.173,2.403-7.979-0.76-10.727c-1.379-1.206-3.153-1.865-4.978-1.865c-2.201,0-4.299,0.953-5.739,2.616l-0.01,0.01
			c-6.164,7.097-13.079,13.565-20.561,19.234c-7.543,5.708-15.694,10.615-24.231,14.599c-8.709,4.065-17.864,7.188-27.222,9.287
			c-9.622,2.149-19.557,3.245-29.513,3.245c-19.405,0-38.132-4.045-55.641-12.025c-0.06-0.031-0.121-0.06-0.182-0.081
			c0-0.01-0.01-0.01-0.02-0.01c-11.487-5.262-22.183-12.126-31.794-20.409c-9.561-8.233-17.915-17.752-24.82-28.297
			c-14.315-21.848-21.879-47.276-21.879-73.515c0-18.148,3.549-35.738,10.554-52.285c6.762-15.988,16.445-30.354,28.794-42.704
			c12.348-12.348,26.715-22.031,42.693-28.793c16.556-7.006,34.146-10.554,52.295-10.554c18.148,0,35.738,3.549,52.284,10.554
			c15.989,6.762,30.355,16.444,42.704,28.793c12.348,12.349,22.031,26.716,28.793,42.704c7.006,16.546,10.554,34.136,10.554,52.285
			c0,11.446-1.44,22.812-4.279,33.781c-2.757,10.636-6.833,20.937-12.126,30.599c-0.973,1.784-1.197,3.843-0.629,5.789
			c0.578,1.947,1.866,3.558,3.65,4.532c1.115,0.609,2.383,0.933,3.64,0.933c2.788,0,5.343-1.511,6.682-3.953
			c5.891-10.757,10.433-22.224,13.504-34.086c3.163-12.217,4.765-24.87,4.765-37.594
			C405.544,311.853,401.59,292.265,393.793,273.834z"/>
	</g>
</g>
<g>
	<g>
		<path d="M256,0c-4.2,0-7.604,3.404-7.604,7.604v30.415c0,4.2,3.404,7.604,7.604,7.604c4.199,0,7.604-3.404,7.604-7.604V7.604
			C263.604,3.404,260.2,0,256,0z"/>
	</g>
</g>
<g>
	<g>
		<path d="M201.753,50.517l-15.208-26.341c-2.1-3.638-6.75-4.882-10.387-2.783c-3.637,2.1-4.883,6.75-2.783,10.387l15.208,26.341
			c1.408,2.44,3.964,3.803,6.592,3.803c1.29,0,2.598-0.329,3.795-1.02C202.607,58.804,203.853,54.154,201.753,50.517z"/>
	</g>
</g>
<g>
	<g>
		<path d="M335.842,21.392c-3.638-2.099-8.287-0.854-10.387,2.783l-15.208,26.34c-2.1,3.636-0.854,8.287,2.783,10.387
			c1.197,0.691,2.505,1.02,3.795,1.02c2.628,0,5.184-1.363,6.592-3.803l15.208-26.34C340.725,28.142,339.479,23.492,335.842,21.392z
			"/>
	</g>
</g>
<g>
</g>
<g>
</g>
<g>
</g>
<g>
</g>
<g>
</g>
<g>
</g>
<g>
</g>
<g>
</g>
<g>
</g>
<g>
</g>
<g>
</g>
<g>
</g>
<g>
</g>
<g>
</g>
<g>
</g>
</svg>
