<?xml version="1.0" encoding="UTF-8"?>
<svg xmlns="http://www.w3.org/2000/svg" id="Solid" viewBox="0 0 512 512" width="512" height="512"><path d="M360,424c23.414,0,42.565-12.031,56.925-35.758A133.589,133.589,0,0,0,429.541,360H319.95a7.886,7.886,0,0,0-5.83,2.536,8.015,8.015,0,0,0-2.145,6.1C313.762,393.892,323.545,424,360,424Z"/><path d="M192.049,360H82.459a133.549,133.549,0,0,0,12.617,28.242C109.434,411.969,128.586,424,152,424c20.122,0,44.787-9.605,48.026-55.366a8.019,8.019,0,0,0-2.146-6.1A7.887,7.887,0,0,0,192.049,360Z"/><path d="M280,352v8a8,8,0,0,1-8,8H240a8,8,0,0,1-8-8v-8a24.028,24.028,0,0,0-24-24H32v16h8a8,8,0,0,1,7.822,6.324,213.411,213.411,0,0,0,21.309,54.03C88.812,438.624,114,456,144,456c30.582,0,54.7-11.073,71.685-32.912a92.88,92.88,0,0,0,16.5-32.823A8,8,0,0,1,240,384h32a8,8,0,0,1,7.81,6.265A94.322,94.322,0,0,0,296.7,423.576C313.668,445.091,337.657,456,368,456c72.691,0,95.951-104.62,96.178-105.676A8,8,0,0,1,472,344h8V328H304A24.028,24.028,0,0,0,280,352Zm-64.014,17.764C212.827,414.4,189.505,440,152,440c-29.131,0-53.634-15.175-70.86-43.884a148.151,148.151,0,0,1-16.985-42.547A8,8,0,0,1,72,344H192.049a24.023,24.023,0,0,1,23.937,25.764ZM440,344a8,8,0,0,1,7.845,9.569,148.117,148.117,0,0,1-16.985,42.547C413.635,424.825,389.132,440,360,440c-37.5,0-60.826-25.6-63.986-70.236A24.023,24.023,0,0,1,319.95,344Z"/><path d="M146.323,91.441A24.046,24.046,0,0,1,177.8,78.924l24.085,10.322A8,8,0,0,0,212.8,83.833l.058-.228a8.029,8.029,0,0,0-4.791-9.364l-23.54-9.416A39.769,39.769,0,0,0,132.9,86.208L36.132,312H50.748Z"/><path d="M299.207,83.845a8,8,0,0,0,10.91,5.4L334.2,78.924a24.048,24.048,0,0,1,31.476,12.517L461.252,312h14.615L379.1,86.208a39.765,39.765,0,0,0-51.621-21.383l-23.54,9.416a8.029,8.029,0,0,0-4.79,9.367Z"/></svg>
