<svg id="Layer_1" enable-background="new 0 0 510 510" height="512" viewBox="0 0 510 510" width="512" xmlns="http://www.w3.org/2000/svg"><g><path d="m449.884 30v-30h-390v75h-15c-59.713 2.479-59.667 87.544 0 90h15v45h-15c-59.713 2.479-59.667 87.544 0 90h15v45h-15c-59.713 2.479-59.667 87.544 0 90h15v75h390v-112.5l60-45c0-7.659 0-320.722 0-322.5zm-360 0h30v45h-30zm-45 105c-19.904-.826-19.889-29.181 0-30h15v30zm45-30h30v105h-30zm-45 165c-19.904-.826-19.889-29.181 0-30h15v30zm45-30h30v105h-30zm-45 165c-19.904-.826-19.889-29.181 0-30h15v30zm45-30h30v105h-30zm330 105h-270v-450h270zm60-142.5-30 22.5v-75h30zm0-82.5h-30v-45h30zm0-75h-30v-45h30zm-30-75v-45h30v45z"/><path d="m194.884 165h180v-105h-180zm30-75h120v45h-120z"/><path d="m194.884 195h180v30h-180z"/><path d="m194.884 255h180v30h-180z"/><path d="m224.884 315h120v30h-120z"/></g></svg>