<svg id="Capa_1" enable-background="new 0 0 512 512" height="512" viewBox="0 0 512 512" width="512" xmlns="http://www.w3.org/2000/svg"><path d="m512 249.121c0-103.191-83.952-187.143-187.143-187.143h-88.286v-55.1l-144.445 101.097 144.445 101.097v-48.236h88.286c48.681 0 88.285 39.605 88.285 88.286 0 43.568-31.725 79.859-73.285 87.003v-67.575h-236.571v68.857h-103.286v98.857h103.286v68.857h236.571v-69.46c96.204-7.665 172.143-88.398 172.143-186.54zm-309.857 49.429h38.857v47.753l-19.429-11.217-19.429 11.217v-47.753zm-172.143 107.715v-38.857h73.286v38.857zm279.857 68.857h-176.571v-176.572h38.856v99.715l49.429-28.538 49.429 28.539v-99.716h38.857zm30-69.58v-39.085c58.167-7.394 103.285-57.193 103.285-117.336 0-65.223-53.063-118.285-118.285-118.285h-118.286v20.622l-62.127-43.482 62.127-43.482v27.486h118.286c86.649-.001 157.143 70.493 157.143 157.142 0 81.589-62.505 148.843-142.143 156.42z"/></svg>