<?xml version="1.0"?>
<svg xmlns="http://www.w3.org/2000/svg" viewBox="0 0 64 64" width="512" height="512"><g id="Lunch_product" data-name="Lunch product"><path d="M61.963,17.731a1,1,0,0,0-.66-.684l-22-7a1,1,0,0,0-1.056.294L32,17.481l-6.247-7.14a1,1,0,0,0-1.056-.294l-22,7a1,1,0,0,0-.45,1.612L8.671,26,2.247,33.341a1,1,0,0,0,.45,1.612L9,36.959V53a1,1,0,0,0,.658.94l22,8a.17.17,0,0,1,.022,0,.942.942,0,0,0,.64,0c.007,0,.015,0,.022,0l10.46-3.8.031.134a1,1,0,0,0,1.682.484l1.414-1.414,4.364,4.364a1,1,0,0,0,1.414,0l2.828-2.829a1,1,0,0,0,0-1.414L51.9,54.826l2.444-.886A1,1,0,0,0,55,53V36.959l6.3-2.006a1,1,0,0,0,.45-1.612L55.329,26l6.424-7.341A1,1,0,0,0,61.963,17.731ZM32,31.951,13.3,26,31,20.368V25a1,1,0,0,0,2,0V20.368L50.7,26Zm-7.321-19.8,5.563,6.359L10.321,24.849,4.758,18.49Zm-14.358,15L30.242,33.49l-5.563,6.359L4.758,33.51ZM51,59.586l-4.364-4.364a1,1,0,0,0-1.414,0l-.843.842L43.032,50.18,48.9,51.545l-.847.849a1,1,0,0,0,0,1.414l4.363,4.363ZM53,52.3l-2.665.965-.163-.163,1.414-1.415a1,1,0,0,0-.481-1.681L41.927,47.87a1,1,0,0,0-1.2,1.2l1.626,7.107L33,59.573V52a1,1,0,0,0-2,0v7.572L11,52.3V37.6l13.7,4.358A.987.987,0,0,0,25,42a1,1,0,0,0,.753-.341l5.247-6V44a1,1,0,0,0,2,0V35.662l5.247,6A1,1,0,0,0,39,42a.987.987,0,0,0,.3-.047L53,37.6ZM39.321,39.849,33.758,33.49l19.921-6.339,5.563,6.359Zm14.358-15L33.758,18.51l5.563-6.359L59.242,18.49Z"/><path d="M36,7a1,1,0,0,0,.833-.445l.516-.774A3.993,3.993,0,0,1,40.676,4H42a1,1,0,0,0,0-2H40.676a5.989,5.989,0,0,0-4.992,2.672l-.516.773A1,1,0,0,0,36,7Z"/><path d="M22.8,3.98l1.784.357A3.01,3.01,0,0,1,27,7.279V8a1,1,0,0,0,2,0V7.279a5.013,5.013,0,0,0-4.02-4.9L23.2,2.02A1,1,0,0,0,22.8,3.98Z"/><path d="M49.692,9.264a3.006,3.006,0,0,1,2.4-1.333h0l-.176.491a3,3,0,0,0,2.026,3.991,3.036,3.036,0,0,0,.783.1,2.989,2.989,0,0,0,1.494-.4,3.038,3.038,0,0,0,1.42-1.9A3,3,0,0,0,55.3,6.483l-.512-.1A3.99,3.99,0,0,1,57.853,4.1a1,1,0,1,0-.286-1.98,5.99,5.99,0,0,0-4.785,3.891l-.35-.066a.974.974,0,0,0-.221-.017l-.19.007a5.005,5.005,0,0,0-3.993,2.224,1,1,0,0,0,1.664,1.108Zm4.1-.142.3-.832.839.158a.992.992,0,0,1,.661.451,1.054,1.054,0,0,1,.1.875,1,1,0,0,1-.466.607,1.01,1.01,0,0,1-.767.1.991.991,0,0,1-.634-.516A1.008,1.008,0,0,1,53.79,9.122Z"/><path d="M3.147,4.1a3.992,3.992,0,0,1,3.066,2.29l-.512.1A3.009,3.009,0,0,0,3.718,7.835a3.054,3.054,0,0,0-.335,2.456,3,3,0,0,0,2.89,2.224,3.06,3.06,0,0,0,.791-.105A3,3,0,0,0,9.093,8.447L8.907,7.93h.006a3.005,3.005,0,0,1,2.395,1.333,1,1,0,1,0,1.664-1.108A5,5,0,0,0,8.981,5.932l-.192-.007a.912.912,0,0,0-.221.017l-.35.066A5.99,5.99,0,0,0,3.433,2.117,1,1,0,0,0,3.147,4.1ZM7.22,9.148a1.006,1.006,0,0,1-1.44,1.233,1.059,1.059,0,0,1-.488-.692,1,1,0,0,1,.78-1.241l.84-.158Z"/><circle cx="32" cy="48" r="1"/><circle cx="32" cy="29" r="1"/><circle cx="34" cy="9" r="1"/><circle cx="45" cy="3" r="1"/><circle cx="61" cy="3" r="1"/><circle cx="20" cy="3" r="1"/><circle cx="14" cy="11" r="1"/></g></svg>
