<svg height="512" viewBox="0 0 512 512" width="512" xmlns="http://www.w3.org/2000/svg"><g><path d="m372 8h-232a28.031 28.031 0 0 0 -28 28v440a28.031 28.031 0 0 0 28 28h232a28.031 28.031 0 0 0 28-28v-440a28.031 28.031 0 0 0 -28-28zm-78.25 16-4 16h-67.5l-4-16zm90.25 452a12.01 12.01 0 0 1 -12 12h-232a12.01 12.01 0 0 1 -12-12v-440a12.01 12.01 0 0 1 12-12h61.75l6.49 25.94a8 8 0 0 0 7.76 6.06h80a8 8 0 0 0 7.76-6.06l6.49-25.94h61.75a12.01 12.01 0 0 1 12 12z"/><path d="m288 440h-64a8 8 0 0 0 -8 8v24a8 8 0 0 0 8 8h64a8 8 0 0 0 8-8v-24a8 8 0 0 0 -8-8zm-8 24h-48v-8h48z"/></g></svg>